<mxfile host="app.diagrams.net" modified="2022-07-01T12:28:06.690Z" agent="5.0 (Windows NT 10.0; Win64; x64) AppleWebKit/537.36 (KHTML, like Gecko) Chrome/102.0.0.0 Safari/537.36" etag="hi0609RhMP8gkQzEukf-" version="20.0.3" type="github">
  <diagram id="GkcbxG188DOWvOuil0Cg" name="第 1 页">
    <mxGraphModel dx="1459" dy="1590" grid="1" gridSize="10" guides="1" tooltips="1" connect="1" arrows="1" fold="1" page="1" pageScale="1" pageWidth="827" pageHeight="1169" background="none" math="0" shadow="0">
      <root>
        <mxCell id="0" />
        <mxCell id="1" parent="0" />
        <mxCell id="bymFwab5TeU9cgXAcqGG-109" value="" style="rounded=1;whiteSpace=wrap;html=1;shadow=0;sketch=1;fontFamily=Comic Sans MS;fontColor=#000000;" vertex="1" parent="1">
          <mxGeometry x="40" y="697.5" width="790" height="520" as="geometry" />
        </mxCell>
        <mxCell id="bymFwab5TeU9cgXAcqGG-1" value="" style="rounded=1;whiteSpace=wrap;html=1;fillColor=#f5f5f5;fontColor=#333333;strokeColor=#666666;" vertex="1" parent="1">
          <mxGeometry x="40" y="80" width="760" height="490" as="geometry" />
        </mxCell>
        <mxCell id="bymFwab5TeU9cgXAcqGG-10" style="edgeStyle=orthogonalEdgeStyle;rounded=0;orthogonalLoop=1;jettySize=auto;html=1;exitX=0.95;exitY=0.95;exitDx=0;exitDy=0;exitPerimeter=0;curved=1;startArrow=classic;startFill=1;strokeWidth=2;fillColor=#f8cecc;strokeColor=#b85450;sketch=1;" edge="1" parent="1" source="bymFwab5TeU9cgXAcqGG-3" target="bymFwab5TeU9cgXAcqGG-4">
          <mxGeometry relative="1" as="geometry" />
        </mxCell>
        <mxCell id="bymFwab5TeU9cgXAcqGG-3" value="" style="fontColor=#0066CC;verticalAlign=top;verticalLabelPosition=bottom;labelPosition=center;align=center;html=1;outlineConnect=0;fillColor=#CCCCCC;strokeColor=#6881B3;gradientColor=none;gradientDirection=north;strokeWidth=2;shape=mxgraph.networks.web_server;points=[[0,0.14,0,0,0],[0,0.5,0,0,0],[0,0.93,0,0,0],[0.28,0.93,0,0,0],[0.5,0,0,0,0],[0.87,0.14,0,0,0],[0.88,0.5,0,0,0],[0.95,0.95,0,0,0]];" vertex="1" parent="1">
          <mxGeometry x="130" y="150" width="105" height="105" as="geometry" />
        </mxCell>
        <mxCell id="bymFwab5TeU9cgXAcqGG-11" style="edgeStyle=orthogonalEdgeStyle;curved=1;rounded=0;orthogonalLoop=1;jettySize=auto;html=1;exitX=0.5;exitY=1;exitDx=0;exitDy=0;exitPerimeter=0;entryX=0;entryY=0.7;entryDx=0;entryDy=0;entryPerimeter=0;startArrow=classic;startFill=1;strokeWidth=2;fillColor=#f8cecc;strokeColor=#b85450;sketch=1;" edge="1" parent="1" source="bymFwab5TeU9cgXAcqGG-4" target="bymFwab5TeU9cgXAcqGG-5">
          <mxGeometry relative="1" as="geometry" />
        </mxCell>
        <mxCell id="bymFwab5TeU9cgXAcqGG-4" value="" style="fontColor=#0066CC;verticalAlign=top;verticalLabelPosition=bottom;labelPosition=center;align=center;html=1;outlineConnect=0;fillColor=#CCCCCC;strokeColor=#6881B3;gradientColor=none;gradientDirection=north;strokeWidth=2;shape=mxgraph.networks.switch;" vertex="1" parent="1">
          <mxGeometry x="112.5" y="360" width="100" height="30" as="geometry" />
        </mxCell>
        <mxCell id="bymFwab5TeU9cgXAcqGG-15" style="edgeStyle=orthogonalEdgeStyle;curved=1;rounded=0;orthogonalLoop=1;jettySize=auto;html=1;exitX=0.98;exitY=0.94;exitDx=0;exitDy=0;exitPerimeter=0;startArrow=classic;startFill=1;strokeWidth=2;fillColor=#f8cecc;strokeColor=#b85450;sketch=1;" edge="1" parent="1" source="bymFwab5TeU9cgXAcqGG-5" target="bymFwab5TeU9cgXAcqGG-13">
          <mxGeometry relative="1" as="geometry" />
        </mxCell>
        <mxCell id="bymFwab5TeU9cgXAcqGG-21" value="网络传输" style="edgeLabel;html=1;align=center;verticalAlign=middle;resizable=0;points=[];fontColor=#000000;" vertex="1" connectable="0" parent="bymFwab5TeU9cgXAcqGG-15">
          <mxGeometry x="-0.3385" relative="1" as="geometry">
            <mxPoint x="8" y="-10" as="offset" />
          </mxGeometry>
        </mxCell>
        <mxCell id="bymFwab5TeU9cgXAcqGG-5" value="" style="fontColor=#0066CC;verticalAlign=top;verticalLabelPosition=bottom;labelPosition=center;align=center;html=1;outlineConnect=0;fillColor=#CCCCCC;strokeColor=#6881B3;gradientColor=none;gradientDirection=north;strokeWidth=2;shape=mxgraph.networks.wireless_hub;" vertex="1" parent="1">
          <mxGeometry x="110" y="430" width="100" height="85" as="geometry" />
        </mxCell>
        <mxCell id="bymFwab5TeU9cgXAcqGG-17" style="edgeStyle=orthogonalEdgeStyle;curved=1;rounded=0;orthogonalLoop=1;jettySize=auto;html=1;exitX=0.5;exitY=0;exitDx=0;exitDy=0;startArrow=classic;startFill=1;strokeWidth=2;fillColor=#f8cecc;strokeColor=#b85450;sketch=1;" edge="1" parent="1" source="bymFwab5TeU9cgXAcqGG-9" target="bymFwab5TeU9cgXAcqGG-12">
          <mxGeometry relative="1" as="geometry" />
        </mxCell>
        <mxCell id="bymFwab5TeU9cgXAcqGG-18" value="发起http请求" style="edgeLabel;html=1;align=center;verticalAlign=middle;resizable=0;points=[];fontColor=#000000;" vertex="1" connectable="0" parent="bymFwab5TeU9cgXAcqGG-17">
          <mxGeometry x="0.5058" y="-7" relative="1" as="geometry">
            <mxPoint y="1" as="offset" />
          </mxGeometry>
        </mxCell>
        <mxCell id="bymFwab5TeU9cgXAcqGG-9" value="" style="rounded=0;whiteSpace=wrap;html=1;fillColor=#ffe6cc;strokeColor=#d79b00;" vertex="1" parent="1">
          <mxGeometry x="583" y="313" width="147" height="227" as="geometry" />
        </mxCell>
        <mxCell id="bymFwab5TeU9cgXAcqGG-7" value="" style="fontColor=#0066CC;verticalAlign=top;verticalLabelPosition=bottom;labelPosition=center;align=center;html=1;outlineConnect=0;fillColor=#CCCCCC;strokeColor=#6881B3;gradientColor=none;gradientDirection=north;strokeWidth=2;shape=mxgraph.networks.switch;" vertex="1" parent="1">
          <mxGeometry x="606.5" y="480" width="100" height="30" as="geometry" />
        </mxCell>
        <mxCell id="bymFwab5TeU9cgXAcqGG-8" value="" style="fontColor=#0066CC;verticalAlign=top;verticalLabelPosition=bottom;labelPosition=center;align=center;html=1;outlineConnect=0;fillColor=#CCCCCC;strokeColor=#6881B3;gradientColor=none;gradientDirection=north;strokeWidth=2;shape=mxgraph.networks.wireless_hub;" vertex="1" parent="1">
          <mxGeometry x="606.5" y="340" width="100" height="85" as="geometry" />
        </mxCell>
        <mxCell id="bymFwab5TeU9cgXAcqGG-12" value="" style="fontColor=#0066CC;verticalAlign=top;verticalLabelPosition=bottom;labelPosition=center;align=center;html=1;outlineConnect=0;fillColor=#CCCCCC;strokeColor=#6881B3;gradientColor=none;gradientDirection=north;strokeWidth=2;shape=mxgraph.networks.pc;" vertex="1" parent="1">
          <mxGeometry x="560" y="160" width="100" height="70" as="geometry" />
        </mxCell>
        <mxCell id="bymFwab5TeU9cgXAcqGG-16" style="edgeStyle=orthogonalEdgeStyle;curved=1;rounded=0;orthogonalLoop=1;jettySize=auto;html=1;exitX=1;exitY=0.5;exitDx=0;exitDy=0;exitPerimeter=0;startArrow=classic;startFill=1;strokeWidth=2;fillColor=#f8cecc;strokeColor=#b85450;sketch=1;" edge="1" parent="1" source="bymFwab5TeU9cgXAcqGG-13" target="bymFwab5TeU9cgXAcqGG-9">
          <mxGeometry relative="1" as="geometry" />
        </mxCell>
        <mxCell id="bymFwab5TeU9cgXAcqGG-19" value="网络传输" style="edgeLabel;html=1;align=center;verticalAlign=middle;resizable=0;points=[];fontColor=#000000;" vertex="1" connectable="0" parent="bymFwab5TeU9cgXAcqGG-16">
          <mxGeometry x="0.1254" relative="1" as="geometry">
            <mxPoint x="1" y="1" as="offset" />
          </mxGeometry>
        </mxCell>
        <mxCell id="bymFwab5TeU9cgXAcqGG-13" value="&lt;font color=&quot;#000000&quot;&gt;&lt;b&gt;网络光纤&lt;/b&gt;&lt;/font&gt;" style="html=1;outlineConnect=0;fillColor=#CCCCCC;strokeColor=#6881B3;gradientColor=none;gradientDirection=north;strokeWidth=2;shape=mxgraph.networks.bus;gradientColor=none;gradientDirection=north;fontColor=#ffffff;perimeter=backbonePerimeter;backboneSize=20;points=[[0,0.5,0,0,0],[1,0.5,0,0,0]];" vertex="1" parent="1">
          <mxGeometry x="300" y="490" width="200" height="20" as="geometry" />
        </mxCell>
        <mxCell id="bymFwab5TeU9cgXAcqGG-23" value="交换机" style="text;strokeColor=none;fillColor=none;align=left;verticalAlign=middle;spacingLeft=4;spacingRight=4;overflow=hidden;points=[[0,0.5],[1,0.5]];portConstraint=eastwest;rotatable=0;fontColor=#000000;" vertex="1" parent="1">
          <mxGeometry x="212.5" y="360" width="80" height="30" as="geometry" />
        </mxCell>
        <mxCell id="bymFwab5TeU9cgXAcqGG-24" value="路由器" style="text;strokeColor=none;fillColor=none;align=left;verticalAlign=middle;spacingLeft=4;spacingRight=4;overflow=hidden;points=[[0,0.5],[1,0.5]];portConstraint=eastwest;rotatable=0;fontColor=#000000;" vertex="1" parent="1">
          <mxGeometry x="122.5" y="530" width="80" height="30" as="geometry" />
        </mxCell>
        <mxCell id="bymFwab5TeU9cgXAcqGG-25" value="交换机" style="text;strokeColor=none;fillColor=none;align=left;verticalAlign=middle;spacingLeft=4;spacingRight=4;overflow=hidden;points=[[0,0.5],[1,0.5]];portConstraint=eastwest;rotatable=0;fontColor=#000000;" vertex="1" parent="1">
          <mxGeometry x="626.5" y="515" width="80" height="30" as="geometry" />
        </mxCell>
        <mxCell id="bymFwab5TeU9cgXAcqGG-26" value="路由器" style="text;strokeColor=none;fillColor=none;align=left;verticalAlign=middle;spacingLeft=4;spacingRight=4;overflow=hidden;points=[[0,0.5],[1,0.5]];portConstraint=eastwest;rotatable=0;fontColor=#000000;" vertex="1" parent="1">
          <mxGeometry x="606.5" y="360" width="80" height="30" as="geometry" />
        </mxCell>
        <mxCell id="bymFwab5TeU9cgXAcqGG-27" value="服务器" style="text;strokeColor=none;fillColor=none;align=left;verticalAlign=middle;spacingLeft=4;spacingRight=4;overflow=hidden;points=[[0,0.5],[1,0.5]];portConstraint=eastwest;rotatable=0;fontColor=#000000;" vertex="1" parent="1">
          <mxGeometry x="230" y="160" width="80" height="30" as="geometry" />
        </mxCell>
        <mxCell id="bymFwab5TeU9cgXAcqGG-28" value="客户端" style="text;strokeColor=none;fillColor=none;align=left;verticalAlign=middle;spacingLeft=4;spacingRight=4;overflow=hidden;points=[[0,0.5],[1,0.5]];portConstraint=eastwest;rotatable=0;fontColor=#000000;" vertex="1" parent="1">
          <mxGeometry x="660" y="160" width="80" height="30" as="geometry" />
        </mxCell>
        <mxCell id="bymFwab5TeU9cgXAcqGG-29" value="" style="rounded=1;whiteSpace=wrap;html=1;fillColor=#f5f5f5;fontColor=#333333;strokeColor=#666666;" vertex="1" parent="1">
          <mxGeometry x="860" y="67.5" width="860" height="630" as="geometry" />
        </mxCell>
        <mxCell id="bymFwab5TeU9cgXAcqGG-54" value="" style="edgeStyle=orthogonalEdgeStyle;curved=1;rounded=0;orthogonalLoop=1;jettySize=auto;html=1;fontFamily=Comic Sans MS;fontColor=#000000;startArrow=classic;startFill=1;strokeWidth=2;" edge="1" parent="1" source="bymFwab5TeU9cgXAcqGG-52" target="bymFwab5TeU9cgXAcqGG-53">
          <mxGeometry relative="1" as="geometry" />
        </mxCell>
        <mxCell id="bymFwab5TeU9cgXAcqGG-56" value="" style="edgeStyle=orthogonalEdgeStyle;curved=1;rounded=0;orthogonalLoop=1;jettySize=auto;html=1;fontFamily=Comic Sans MS;fontColor=#000000;startArrow=classic;startFill=1;strokeWidth=2;" edge="1" parent="1" source="bymFwab5TeU9cgXAcqGG-52" target="bymFwab5TeU9cgXAcqGG-55">
          <mxGeometry relative="1" as="geometry" />
        </mxCell>
        <mxCell id="bymFwab5TeU9cgXAcqGG-68" style="edgeStyle=orthogonalEdgeStyle;curved=1;rounded=0;orthogonalLoop=1;jettySize=auto;html=1;exitX=0;exitY=1;exitDx=0;exitDy=0;exitPerimeter=0;entryX=0.85;entryY=0.5;entryDx=0;entryDy=0;entryPerimeter=0;fontFamily=Comic Sans MS;fontColor=#000000;startArrow=none;startFill=0;strokeWidth=2;fillColor=#dae8fc;strokeColor=#6c8ebf;sketch=1;" edge="1" parent="1" source="bymFwab5TeU9cgXAcqGG-52" target="bymFwab5TeU9cgXAcqGG-65">
          <mxGeometry relative="1" as="geometry" />
        </mxCell>
        <mxCell id="bymFwab5TeU9cgXAcqGG-69" value="1、你是.com，我给你返回了&lt;br&gt;.com的顶级域域名服务器&lt;br&gt;你找他要" style="edgeLabel;html=1;align=center;verticalAlign=middle;resizable=0;points=[];fontFamily=Comic Sans MS;fontColor=#000000;" vertex="1" connectable="0" parent="bymFwab5TeU9cgXAcqGG-68">
          <mxGeometry x="0.5131" y="2" relative="1" as="geometry">
            <mxPoint x="64" y="26" as="offset" />
          </mxGeometry>
        </mxCell>
        <mxCell id="bymFwab5TeU9cgXAcqGG-52" value="&lt;font face=&quot;Comic Sans MS&quot;&gt;RootDNSServer&lt;/font&gt;" style="fontColor=#0066CC;verticalAlign=top;verticalLabelPosition=bottom;labelPosition=center;align=center;html=1;outlineConnect=0;fillColor=#CCCCCC;strokeColor=#6881B3;gradientColor=none;gradientDirection=north;strokeWidth=2;shape=mxgraph.networks.server;" vertex="1" parent="1">
          <mxGeometry x="1482" y="175" width="80" height="80" as="geometry" />
        </mxCell>
        <mxCell id="bymFwab5TeU9cgXAcqGG-58" value="" style="edgeStyle=orthogonalEdgeStyle;curved=1;rounded=0;orthogonalLoop=1;jettySize=auto;html=1;fontFamily=Comic Sans MS;fontColor=#000000;startArrow=classic;startFill=1;strokeWidth=2;" edge="1" parent="1" source="bymFwab5TeU9cgXAcqGG-53" target="bymFwab5TeU9cgXAcqGG-57">
          <mxGeometry relative="1" as="geometry" />
        </mxCell>
        <mxCell id="bymFwab5TeU9cgXAcqGG-60" value="" style="edgeStyle=orthogonalEdgeStyle;curved=1;rounded=0;orthogonalLoop=1;jettySize=auto;html=1;fontFamily=Comic Sans MS;fontColor=#000000;startArrow=classic;startFill=1;strokeWidth=2;" edge="1" parent="1" source="bymFwab5TeU9cgXAcqGG-53" target="bymFwab5TeU9cgXAcqGG-59">
          <mxGeometry relative="1" as="geometry" />
        </mxCell>
        <mxCell id="bymFwab5TeU9cgXAcqGG-72" style="edgeStyle=orthogonalEdgeStyle;curved=1;rounded=0;orthogonalLoop=1;jettySize=auto;html=1;exitX=0;exitY=1;exitDx=0;exitDy=0;exitPerimeter=0;fontFamily=Comic Sans MS;fontColor=#000000;startArrow=none;startFill=0;strokeWidth=2;fillColor=#f8cecc;strokeColor=#b85450;sketch=1;" edge="1" parent="1" source="bymFwab5TeU9cgXAcqGG-53" target="bymFwab5TeU9cgXAcqGG-65">
          <mxGeometry relative="1" as="geometry" />
        </mxCell>
        <mxCell id="bymFwab5TeU9cgXAcqGG-73" value="2、好的我知道了，我给你server.com&lt;br&gt;的权威DNS服务器的地址，你问他就行" style="edgeLabel;html=1;align=center;verticalAlign=middle;resizable=0;points=[];fontFamily=Comic Sans MS;fontColor=#000000;" vertex="1" connectable="0" parent="bymFwab5TeU9cgXAcqGG-72">
          <mxGeometry x="0.076" y="-30" relative="1" as="geometry">
            <mxPoint x="80" y="20" as="offset" />
          </mxGeometry>
        </mxCell>
        <mxCell id="bymFwab5TeU9cgXAcqGG-53" value="&lt;font face=&quot;Comic Sans MS&quot;&gt;顶级DNSServer&lt;/font&gt;" style="fontColor=#0066CC;verticalAlign=top;verticalLabelPosition=bottom;labelPosition=center;align=center;html=1;outlineConnect=0;fillColor=#CCCCCC;strokeColor=#6881B3;gradientColor=none;gradientDirection=north;strokeWidth=2;shape=mxgraph.networks.server;" vertex="1" parent="1">
          <mxGeometry x="1409" y="345" width="80" height="90" as="geometry" />
        </mxCell>
        <mxCell id="bymFwab5TeU9cgXAcqGG-62" value="" style="edgeStyle=orthogonalEdgeStyle;curved=1;rounded=0;orthogonalLoop=1;jettySize=auto;html=1;fontFamily=Comic Sans MS;fontColor=#000000;startArrow=classic;startFill=1;strokeWidth=2;" edge="1" parent="1" source="bymFwab5TeU9cgXAcqGG-55" target="bymFwab5TeU9cgXAcqGG-61">
          <mxGeometry relative="1" as="geometry" />
        </mxCell>
        <mxCell id="bymFwab5TeU9cgXAcqGG-64" value="" style="edgeStyle=orthogonalEdgeStyle;curved=1;rounded=0;orthogonalLoop=1;jettySize=auto;html=1;fontFamily=Comic Sans MS;fontColor=#000000;startArrow=classic;startFill=1;strokeWidth=2;" edge="1" parent="1" source="bymFwab5TeU9cgXAcqGG-55" target="bymFwab5TeU9cgXAcqGG-63">
          <mxGeometry relative="1" as="geometry" />
        </mxCell>
        <mxCell id="bymFwab5TeU9cgXAcqGG-55" value="&lt;font face=&quot;Comic Sans MS&quot;&gt;顶级DNSServer&lt;/font&gt;" style="fontColor=#0066CC;verticalAlign=top;verticalLabelPosition=bottom;labelPosition=center;align=center;html=1;outlineConnect=0;fillColor=#CCCCCC;strokeColor=#6881B3;gradientColor=none;gradientDirection=north;strokeWidth=2;shape=mxgraph.networks.server;" vertex="1" parent="1">
          <mxGeometry x="1562" y="345" width="77" height="90" as="geometry" />
        </mxCell>
        <mxCell id="bymFwab5TeU9cgXAcqGG-76" style="edgeStyle=orthogonalEdgeStyle;curved=1;rounded=0;orthogonalLoop=1;jettySize=auto;html=1;exitX=0;exitY=1;exitDx=0;exitDy=0;exitPerimeter=0;fontFamily=Comic Sans MS;fontColor=#000000;startArrow=none;startFill=0;strokeWidth=2;fillColor=#0050ef;strokeColor=#001DBC;sketch=1;" edge="1" parent="1" source="bymFwab5TeU9cgXAcqGG-57" target="bymFwab5TeU9cgXAcqGG-65">
          <mxGeometry relative="1" as="geometry">
            <Array as="points">
              <mxPoint x="1364" y="615" />
              <mxPoint x="950" y="615" />
              <mxPoint x="950" y="215" />
            </Array>
          </mxGeometry>
        </mxCell>
        <mxCell id="bymFwab5TeU9cgXAcqGG-77" value="3、找到了，是 xxx.xxx.xxx.xxx，拿去吧" style="edgeLabel;html=1;align=center;verticalAlign=middle;resizable=0;points=[];fontFamily=Comic Sans MS;fontColor=#000000;" vertex="1" connectable="0" parent="bymFwab5TeU9cgXAcqGG-76">
          <mxGeometry x="-0.0936" y="-49" relative="1" as="geometry">
            <mxPoint x="88" y="29" as="offset" />
          </mxGeometry>
        </mxCell>
        <mxCell id="bymFwab5TeU9cgXAcqGG-57" value="&lt;font face=&quot;Comic Sans MS&quot;&gt;权威DNSServer&lt;/font&gt;" style="fontColor=#0066CC;verticalAlign=top;verticalLabelPosition=bottom;labelPosition=center;align=center;html=1;outlineConnect=0;fillColor=#CCCCCC;strokeColor=#6881B3;gradientColor=none;gradientDirection=north;strokeWidth=2;shape=mxgraph.networks.server;" vertex="1" parent="1">
          <mxGeometry x="1364" y="497.5" width="70" height="80" as="geometry" />
        </mxCell>
        <mxCell id="bymFwab5TeU9cgXAcqGG-59" value="&lt;font face=&quot;Comic Sans MS&quot;&gt;权威DNSServer&lt;/font&gt;" style="fontColor=#0066CC;verticalAlign=top;verticalLabelPosition=bottom;labelPosition=center;align=center;html=1;outlineConnect=0;fillColor=#CCCCCC;strokeColor=#6881B3;gradientColor=none;gradientDirection=north;strokeWidth=2;shape=mxgraph.networks.server;" vertex="1" parent="1">
          <mxGeometry x="1449" y="492.5" width="70" height="85" as="geometry" />
        </mxCell>
        <mxCell id="bymFwab5TeU9cgXAcqGG-61" value="&lt;font face=&quot;Comic Sans MS&quot;&gt;权威DNSServer&lt;/font&gt;" style="fontColor=#0066CC;verticalAlign=top;verticalLabelPosition=bottom;labelPosition=center;align=center;html=1;outlineConnect=0;fillColor=#CCCCCC;strokeColor=#6881B3;gradientColor=none;gradientDirection=north;strokeWidth=2;shape=mxgraph.networks.server;" vertex="1" parent="1">
          <mxGeometry x="1632" y="487.5" width="77" height="90" as="geometry" />
        </mxCell>
        <mxCell id="bymFwab5TeU9cgXAcqGG-63" value="&lt;font face=&quot;Comic Sans MS&quot;&gt;权威DNSServer&lt;/font&gt;" style="fontColor=#0066CC;verticalAlign=top;verticalLabelPosition=bottom;labelPosition=center;align=center;html=1;outlineConnect=0;fillColor=#CCCCCC;strokeColor=#6881B3;gradientColor=none;gradientDirection=north;strokeWidth=2;shape=mxgraph.networks.server;" vertex="1" parent="1">
          <mxGeometry x="1539" y="485" width="77" height="90" as="geometry" />
        </mxCell>
        <mxCell id="bymFwab5TeU9cgXAcqGG-66" style="edgeStyle=orthogonalEdgeStyle;curved=1;rounded=0;orthogonalLoop=1;jettySize=auto;html=1;exitX=0.83;exitY=0;exitDx=0;exitDy=0;exitPerimeter=0;entryX=0;entryY=0.5;entryDx=0;entryDy=0;entryPerimeter=0;fontFamily=Comic Sans MS;fontColor=#000000;startArrow=none;startFill=0;strokeWidth=2;fillColor=#dae8fc;strokeColor=#6c8ebf;sketch=1;" edge="1" parent="1" source="bymFwab5TeU9cgXAcqGG-65" target="bymFwab5TeU9cgXAcqGG-52">
          <mxGeometry relative="1" as="geometry" />
        </mxCell>
        <mxCell id="bymFwab5TeU9cgXAcqGG-67" value="1、请求解析这个域名的ip" style="edgeLabel;html=1;align=center;verticalAlign=middle;resizable=0;points=[];fontFamily=Comic Sans MS;fontColor=#000000;" vertex="1" connectable="0" parent="bymFwab5TeU9cgXAcqGG-66">
          <mxGeometry x="-0.2718" y="-6" relative="1" as="geometry">
            <mxPoint x="40" y="2" as="offset" />
          </mxGeometry>
        </mxCell>
        <mxCell id="bymFwab5TeU9cgXAcqGG-70" style="edgeStyle=orthogonalEdgeStyle;curved=1;rounded=0;orthogonalLoop=1;jettySize=auto;html=1;exitX=1;exitY=1;exitDx=0;exitDy=0;exitPerimeter=0;entryX=0;entryY=0.5;entryDx=0;entryDy=0;entryPerimeter=0;fontFamily=Comic Sans MS;fontColor=#000000;startArrow=none;startFill=0;strokeWidth=2;fillColor=#f8cecc;strokeColor=#b85450;sketch=1;" edge="1" parent="1" source="bymFwab5TeU9cgXAcqGG-65" target="bymFwab5TeU9cgXAcqGG-53">
          <mxGeometry relative="1" as="geometry" />
        </mxCell>
        <mxCell id="bymFwab5TeU9cgXAcqGG-71" value="2、我是.com,我请求解析这个域名" style="edgeLabel;html=1;align=center;verticalAlign=middle;resizable=0;points=[];fontFamily=Comic Sans MS;fontColor=#000000;" vertex="1" connectable="0" parent="bymFwab5TeU9cgXAcqGG-70">
          <mxGeometry x="-0.1081" y="46" relative="1" as="geometry">
            <mxPoint x="26" y="1" as="offset" />
          </mxGeometry>
        </mxCell>
        <mxCell id="bymFwab5TeU9cgXAcqGG-74" style="edgeStyle=orthogonalEdgeStyle;curved=1;rounded=0;orthogonalLoop=1;jettySize=auto;html=1;entryX=0;entryY=0.5;entryDx=0;entryDy=0;entryPerimeter=0;fontFamily=Comic Sans MS;fontColor=#000000;startArrow=none;startFill=0;strokeWidth=2;fillColor=#0050ef;strokeColor=#001DBC;sketch=1;" edge="1" parent="1" source="bymFwab5TeU9cgXAcqGG-65" target="bymFwab5TeU9cgXAcqGG-57">
          <mxGeometry relative="1" as="geometry">
            <Array as="points">
              <mxPoint x="970" y="215" />
              <mxPoint x="970" y="538" />
            </Array>
          </mxGeometry>
        </mxCell>
        <mxCell id="bymFwab5TeU9cgXAcqGG-75" value="3、告诉我www.baidu.com的ip地址" style="edgeLabel;html=1;align=center;verticalAlign=middle;resizable=0;points=[];fontFamily=Comic Sans MS;fontColor=#000000;" vertex="1" connectable="0" parent="bymFwab5TeU9cgXAcqGG-74">
          <mxGeometry x="0.2595" y="30" relative="1" as="geometry">
            <mxPoint as="offset" />
          </mxGeometry>
        </mxCell>
        <mxCell id="bymFwab5TeU9cgXAcqGG-65" value="请求www.baidu.com" style="fontColor=#0066CC;verticalAlign=top;verticalLabelPosition=bottom;labelPosition=center;align=center;html=1;outlineConnect=0;fillColor=#CCCCCC;strokeColor=#6881B3;gradientColor=none;gradientDirection=north;strokeWidth=2;shape=mxgraph.networks.laptop;fontFamily=Comic Sans MS;" vertex="1" parent="1">
          <mxGeometry x="980" y="187.5" width="100" height="55" as="geometry" />
        </mxCell>
        <mxCell id="bymFwab5TeU9cgXAcqGG-86" value="" style="line;strokeWidth=2;html=1;fontFamily=Comic Sans MS;fontColor=#000000;sketch=1;" vertex="1" parent="1">
          <mxGeometry x="263" y="822.5" width="320" height="10" as="geometry" />
        </mxCell>
        <mxCell id="bymFwab5TeU9cgXAcqGG-88" value="" style="line;strokeWidth=2;html=1;fontFamily=Comic Sans MS;fontColor=#000000;" vertex="1" parent="1">
          <mxGeometry x="255.5" y="912.5" width="320" height="10" as="geometry" />
        </mxCell>
        <mxCell id="bymFwab5TeU9cgXAcqGG-89" value="" style="line;strokeWidth=2;html=1;fontFamily=Comic Sans MS;fontColor=#000000;" vertex="1" parent="1">
          <mxGeometry x="255.5" y="1012.5" width="320" height="10" as="geometry" />
        </mxCell>
        <mxCell id="bymFwab5TeU9cgXAcqGG-90" value="" style="line;strokeWidth=2;html=1;fontFamily=Comic Sans MS;fontColor=#000000;sketch=1;shadow=0;" vertex="1" parent="1">
          <mxGeometry x="245.5" y="1112.5" width="320" height="10" as="geometry" />
        </mxCell>
        <mxCell id="bymFwab5TeU9cgXAcqGG-92" value="&lt;b&gt;HTTP&lt;/b&gt;" style="rounded=1;whiteSpace=wrap;html=1;strokeWidth=2;fillWeight=4;hachureGap=8;hachureAngle=45;fillColor=#1ba1e2;sketch=1;fontFamily=Comic Sans MS;fontColor=#000000;" vertex="1" parent="1">
          <mxGeometry x="298" y="752.5" width="70" height="40" as="geometry" />
        </mxCell>
        <mxCell id="bymFwab5TeU9cgXAcqGG-94" value="&lt;b&gt;FTP&lt;/b&gt;" style="rounded=1;whiteSpace=wrap;html=1;strokeWidth=2;fillWeight=4;hachureGap=8;hachureAngle=45;fillColor=#1ba1e2;sketch=1;fontFamily=Comic Sans MS;fontColor=#000000;" vertex="1" parent="1">
          <mxGeometry x="380.5" y="752.5" width="70" height="40" as="geometry" />
        </mxCell>
        <mxCell id="bymFwab5TeU9cgXAcqGG-95" value="&lt;b&gt;。。。&lt;/b&gt;" style="rounded=1;whiteSpace=wrap;html=1;strokeWidth=2;fillWeight=4;hachureGap=8;hachureAngle=45;fillColor=#1ba1e2;sketch=1;fontFamily=Comic Sans MS;fontColor=#000000;" vertex="1" parent="1">
          <mxGeometry x="463" y="752.5" width="70" height="40" as="geometry" />
        </mxCell>
        <mxCell id="bymFwab5TeU9cgXAcqGG-96" value="应用层" style="text;strokeColor=none;fillColor=none;align=left;verticalAlign=middle;spacingLeft=4;spacingRight=4;overflow=hidden;points=[[0,0.5],[1,0.5]];portConstraint=eastwest;rotatable=0;fontFamily=Comic Sans MS;fontColor=#000000;" vertex="1" parent="1">
          <mxGeometry x="510" y="802.5" width="80" height="30" as="geometry" />
        </mxCell>
        <mxCell id="bymFwab5TeU9cgXAcqGG-97" value="传输层" style="text;strokeColor=none;fillColor=none;align=left;verticalAlign=middle;spacingLeft=4;spacingRight=4;overflow=hidden;points=[[0,0.5],[1,0.5]];portConstraint=eastwest;rotatable=0;fontFamily=Comic Sans MS;fontColor=#000000;" vertex="1" parent="1">
          <mxGeometry x="520" y="892.5" width="80" height="30" as="geometry" />
        </mxCell>
        <mxCell id="bymFwab5TeU9cgXAcqGG-98" value="网络层" style="text;strokeColor=none;fillColor=none;align=left;verticalAlign=middle;spacingLeft=4;spacingRight=4;overflow=hidden;points=[[0,0.5],[1,0.5]];portConstraint=eastwest;rotatable=0;fontFamily=Comic Sans MS;fontColor=#000000;" vertex="1" parent="1">
          <mxGeometry x="510" y="992.5" width="80" height="30" as="geometry" />
        </mxCell>
        <mxCell id="bymFwab5TeU9cgXAcqGG-99" value="网络接口层" style="text;strokeColor=none;fillColor=none;align=left;verticalAlign=middle;spacingLeft=4;spacingRight=4;overflow=hidden;points=[[0,0.5],[1,0.5]];portConstraint=eastwest;rotatable=0;fontFamily=Comic Sans MS;fontColor=#000000;" vertex="1" parent="1">
          <mxGeometry x="503" y="1092.5" width="80" height="30" as="geometry" />
        </mxCell>
        <mxCell id="bymFwab5TeU9cgXAcqGG-100" value="&lt;b&gt;TCP&lt;/b&gt;" style="rounded=1;whiteSpace=wrap;html=1;strokeWidth=2;fillWeight=4;hachureGap=8;hachureAngle=45;fillColor=#ffe6cc;sketch=1;fontFamily=Comic Sans MS;strokeColor=#d79b00;" vertex="1" parent="1">
          <mxGeometry x="298" y="852.5" width="70" height="40" as="geometry" />
        </mxCell>
        <mxCell id="bymFwab5TeU9cgXAcqGG-101" value="&lt;b&gt;UDP&lt;/b&gt;" style="rounded=1;whiteSpace=wrap;html=1;strokeWidth=2;fillWeight=4;hachureGap=8;hachureAngle=45;fillColor=#ffe6cc;sketch=1;fontFamily=Comic Sans MS;strokeColor=#d79b00;" vertex="1" parent="1">
          <mxGeometry x="373" y="852.5" width="70" height="40" as="geometry" />
        </mxCell>
        <mxCell id="bymFwab5TeU9cgXAcqGG-102" value="&lt;b&gt;...&lt;/b&gt;" style="rounded=1;whiteSpace=wrap;html=1;strokeWidth=2;fillWeight=4;hachureGap=8;hachureAngle=45;fillColor=#ffe6cc;sketch=1;fontFamily=Comic Sans MS;strokeColor=#d79b00;" vertex="1" parent="1">
          <mxGeometry x="463" y="852.5" width="70" height="40" as="geometry" />
        </mxCell>
        <mxCell id="bymFwab5TeU9cgXAcqGG-103" value="&lt;b&gt;IP&lt;/b&gt;" style="rounded=1;whiteSpace=wrap;html=1;strokeWidth=2;fillWeight=4;hachureGap=8;hachureAngle=45;fillColor=#f8cecc;sketch=1;fontFamily=Comic Sans MS;strokeColor=#b85450;" vertex="1" parent="1">
          <mxGeometry x="290.5" y="952.5" width="70" height="40" as="geometry" />
        </mxCell>
        <mxCell id="bymFwab5TeU9cgXAcqGG-104" value="&lt;b&gt;ICMP&amp;nbsp;&lt;/b&gt;" style="rounded=1;whiteSpace=wrap;html=1;strokeWidth=2;fillWeight=4;hachureGap=8;hachureAngle=45;fillColor=#f8cecc;sketch=1;fontFamily=Comic Sans MS;strokeColor=#b85450;" vertex="1" parent="1">
          <mxGeometry x="373" y="952.5" width="70" height="40" as="geometry" />
        </mxCell>
        <mxCell id="bymFwab5TeU9cgXAcqGG-105" value="&lt;b&gt;ARP...&lt;/b&gt;" style="rounded=1;whiteSpace=wrap;html=1;strokeWidth=2;fillWeight=4;hachureGap=8;hachureAngle=45;fillColor=#f8cecc;sketch=1;fontFamily=Comic Sans MS;strokeColor=#b85450;" vertex="1" parent="1">
          <mxGeometry x="455.5" y="952.5" width="70" height="40" as="geometry" />
        </mxCell>
        <mxCell id="bymFwab5TeU9cgXAcqGG-106" value="" style="line;strokeWidth=2;html=1;fontFamily=Comic Sans MS;fontColor=#000000;sketch=1;shadow=0;" vertex="1" parent="1">
          <mxGeometry x="255.5" y="912.5" width="320" height="10" as="geometry" />
        </mxCell>
        <mxCell id="bymFwab5TeU9cgXAcqGG-107" value="" style="line;strokeWidth=2;html=1;fontFamily=Comic Sans MS;fontColor=#000000;sketch=1;shadow=0;" vertex="1" parent="1">
          <mxGeometry x="255.5" y="1012.5" width="320" height="10" as="geometry" />
        </mxCell>
        <mxCell id="bymFwab5TeU9cgXAcqGG-108" value="&lt;b&gt;网卡设备等等&lt;/b&gt;" style="rounded=1;whiteSpace=wrap;html=1;strokeWidth=2;fillWeight=4;hachureGap=8;hachureAngle=45;fillColor=#e1d5e7;sketch=1;fontFamily=Comic Sans MS;strokeColor=#9673a6;" vertex="1" parent="1">
          <mxGeometry x="336.75" y="1052.5" width="97.5" height="40" as="geometry" />
        </mxCell>
        <mxCell id="bymFwab5TeU9cgXAcqGG-154" style="edgeStyle=orthogonalEdgeStyle;curved=1;rounded=0;orthogonalLoop=1;jettySize=auto;html=1;exitX=0.25;exitY=1;exitDx=0;exitDy=0;entryX=0.25;entryY=0;entryDx=0;entryDy=0;fontFamily=Comic Sans MS;fontSize=10;fontColor=#000000;startArrow=none;startFill=0;strokeWidth=2;sketch=1;" edge="1" parent="1" source="bymFwab5TeU9cgXAcqGG-122" target="bymFwab5TeU9cgXAcqGG-124">
          <mxGeometry relative="1" as="geometry" />
        </mxCell>
        <mxCell id="bymFwab5TeU9cgXAcqGG-122" value="data" style="rounded=0;whiteSpace=wrap;html=1;shadow=0;sketch=0;fontFamily=Comic Sans MS;fontColor=#333333;fillColor=#f5f5f5;strokeColor=#666666;" vertex="1" parent="1">
          <mxGeometry x="170" y="747.5" width="93" height="60" as="geometry" />
        </mxCell>
        <mxCell id="bymFwab5TeU9cgXAcqGG-123" value="HTTP头部" style="rounded=0;whiteSpace=wrap;html=1;shadow=0;sketch=0;fontFamily=Comic Sans MS;fillColor=#dae8fc;strokeColor=#6c8ebf;" vertex="1" parent="1">
          <mxGeometry x="140" y="747.5" width="30" height="60" as="geometry" />
        </mxCell>
        <mxCell id="bymFwab5TeU9cgXAcqGG-155" style="edgeStyle=orthogonalEdgeStyle;curved=1;rounded=0;orthogonalLoop=1;jettySize=auto;html=1;exitX=0.25;exitY=1;exitDx=0;exitDy=0;entryX=0.25;entryY=0;entryDx=0;entryDy=0;fontFamily=Comic Sans MS;fontSize=10;fontColor=#000000;startArrow=none;startFill=0;strokeWidth=2;sketch=1;" edge="1" parent="1" source="bymFwab5TeU9cgXAcqGG-124" target="bymFwab5TeU9cgXAcqGG-126">
          <mxGeometry relative="1" as="geometry" />
        </mxCell>
        <mxCell id="bymFwab5TeU9cgXAcqGG-124" value="data" style="rounded=0;whiteSpace=wrap;html=1;shadow=0;sketch=0;fontFamily=Comic Sans MS;fontColor=#333333;fillColor=#f5f5f5;strokeColor=#666666;" vertex="1" parent="1">
          <mxGeometry x="170" y="837.5" width="93" height="60" as="geometry" />
        </mxCell>
        <mxCell id="bymFwab5TeU9cgXAcqGG-125" value="&lt;font style=&quot;font-size: 10px;&quot;&gt;HTTP头部&lt;/font&gt;" style="rounded=0;whiteSpace=wrap;html=1;shadow=0;sketch=0;fontFamily=Comic Sans MS;fillColor=#dae8fc;strokeColor=#6c8ebf;" vertex="1" parent="1">
          <mxGeometry x="140" y="837.5" width="30" height="60" as="geometry" />
        </mxCell>
        <mxCell id="bymFwab5TeU9cgXAcqGG-156" style="edgeStyle=orthogonalEdgeStyle;curved=1;rounded=0;orthogonalLoop=1;jettySize=auto;html=1;exitX=0.25;exitY=1;exitDx=0;exitDy=0;entryX=0.25;entryY=0;entryDx=0;entryDy=0;fontFamily=Comic Sans MS;fontSize=10;fontColor=#000000;startArrow=none;startFill=0;strokeWidth=2;sketch=1;" edge="1" parent="1" source="bymFwab5TeU9cgXAcqGG-126" target="bymFwab5TeU9cgXAcqGG-128">
          <mxGeometry relative="1" as="geometry" />
        </mxCell>
        <mxCell id="bymFwab5TeU9cgXAcqGG-126" value="data" style="rounded=0;whiteSpace=wrap;html=1;shadow=0;sketch=0;fontFamily=Comic Sans MS;fontColor=#333333;fillColor=#f5f5f5;strokeColor=#666666;" vertex="1" parent="1">
          <mxGeometry x="170" y="947.5" width="93" height="55" as="geometry" />
        </mxCell>
        <mxCell id="bymFwab5TeU9cgXAcqGG-157" style="edgeStyle=orthogonalEdgeStyle;curved=1;rounded=0;orthogonalLoop=1;jettySize=auto;html=1;exitX=0.25;exitY=1;exitDx=0;exitDy=0;entryX=0;entryY=0.5;entryDx=0;entryDy=0;entryPerimeter=0;fontFamily=Comic Sans MS;fontSize=10;fontColor=#000000;startArrow=none;startFill=0;strokeWidth=2;sketch=1;" edge="1" parent="1" source="bymFwab5TeU9cgXAcqGG-128" target="bymFwab5TeU9cgXAcqGG-153">
          <mxGeometry relative="1" as="geometry" />
        </mxCell>
        <mxCell id="bymFwab5TeU9cgXAcqGG-128" value="data" style="rounded=0;whiteSpace=wrap;html=1;shadow=0;sketch=0;fontFamily=Comic Sans MS;fontColor=#333333;fillColor=#f5f5f5;strokeColor=#666666;" vertex="1" parent="1">
          <mxGeometry x="172" y="1052.5" width="93" height="60" as="geometry" />
        </mxCell>
        <mxCell id="bymFwab5TeU9cgXAcqGG-129" value="HTTP头部" style="rounded=0;whiteSpace=wrap;html=1;shadow=0;sketch=0;fontFamily=Comic Sans MS;fillColor=#dae8fc;strokeColor=#6c8ebf;" vertex="1" parent="1">
          <mxGeometry x="142" y="1052.5" width="30" height="60" as="geometry" />
        </mxCell>
        <mxCell id="bymFwab5TeU9cgXAcqGG-131" value="TCP头部" style="rounded=0;whiteSpace=wrap;html=1;shadow=0;sketch=0;fontFamily=Comic Sans MS;fillColor=#dae8fc;strokeColor=#6c8ebf;" vertex="1" parent="1">
          <mxGeometry x="110" y="837.5" width="30" height="60" as="geometry" />
        </mxCell>
        <mxCell id="bymFwab5TeU9cgXAcqGG-133" value="IP头部" style="rounded=0;whiteSpace=wrap;html=1;shadow=0;sketch=0;fontFamily=Comic Sans MS;fillColor=#dae8fc;strokeColor=#6c8ebf;" vertex="1" parent="1">
          <mxGeometry x="80" y="947.5" width="30" height="55" as="geometry" />
        </mxCell>
        <mxCell id="bymFwab5TeU9cgXAcqGG-134" value="TCP头部" style="rounded=0;whiteSpace=wrap;html=1;shadow=0;sketch=0;fontFamily=Comic Sans MS;fillColor=#dae8fc;strokeColor=#6c8ebf;" vertex="1" parent="1">
          <mxGeometry x="112" y="1052.5" width="30" height="60" as="geometry" />
        </mxCell>
        <mxCell id="bymFwab5TeU9cgXAcqGG-135" value="IP头部" style="rounded=0;whiteSpace=wrap;html=1;shadow=0;sketch=0;fontFamily=Comic Sans MS;fillColor=#dae8fc;strokeColor=#6c8ebf;" vertex="1" parent="1">
          <mxGeometry x="82" y="1052.5" width="30" height="60" as="geometry" />
        </mxCell>
        <mxCell id="bymFwab5TeU9cgXAcqGG-136" value="MAC头部" style="rounded=0;whiteSpace=wrap;html=1;shadow=0;sketch=0;fontFamily=Comic Sans MS;fillColor=#dae8fc;strokeColor=#6c8ebf;" vertex="1" parent="1">
          <mxGeometry x="52" y="1052.5" width="30" height="60" as="geometry" />
        </mxCell>
        <mxCell id="bymFwab5TeU9cgXAcqGG-137" value="data" style="rounded=0;whiteSpace=wrap;html=1;shadow=0;sketch=0;fontFamily=Comic Sans MS;fontColor=#333333;fillColor=#f5f5f5;strokeColor=#666666;" vertex="1" parent="1">
          <mxGeometry x="708.5" y="742.5" width="93" height="60" as="geometry" />
        </mxCell>
        <mxCell id="bymFwab5TeU9cgXAcqGG-138" value="HTTP头部" style="rounded=0;whiteSpace=wrap;html=1;shadow=0;sketch=0;fontFamily=Comic Sans MS;fillColor=#dae8fc;strokeColor=#6c8ebf;" vertex="1" parent="1">
          <mxGeometry x="678.5" y="742.5" width="30" height="60" as="geometry" />
        </mxCell>
        <mxCell id="bymFwab5TeU9cgXAcqGG-162" style="edgeStyle=orthogonalEdgeStyle;curved=1;rounded=0;orthogonalLoop=1;jettySize=auto;html=1;exitX=0.5;exitY=0;exitDx=0;exitDy=0;entryX=0.5;entryY=1;entryDx=0;entryDy=0;fontFamily=Comic Sans MS;fontSize=10;fontColor=#000000;startArrow=none;startFill=0;strokeWidth=2;sketch=1;" edge="1" parent="1" source="bymFwab5TeU9cgXAcqGG-139" target="bymFwab5TeU9cgXAcqGG-137">
          <mxGeometry relative="1" as="geometry" />
        </mxCell>
        <mxCell id="bymFwab5TeU9cgXAcqGG-139" value="data" style="rounded=0;whiteSpace=wrap;html=1;shadow=0;sketch=0;fontFamily=Comic Sans MS;fontColor=#333333;fillColor=#f5f5f5;strokeColor=#666666;" vertex="1" parent="1">
          <mxGeometry x="710" y="842.5" width="93" height="60" as="geometry" />
        </mxCell>
        <mxCell id="bymFwab5TeU9cgXAcqGG-140" value="&lt;font style=&quot;font-size: 10px;&quot;&gt;HTTP头部&lt;/font&gt;" style="rounded=0;whiteSpace=wrap;html=1;shadow=0;sketch=0;fontFamily=Comic Sans MS;fillColor=#dae8fc;strokeColor=#6c8ebf;" vertex="1" parent="1">
          <mxGeometry x="680" y="842.5" width="30" height="60" as="geometry" />
        </mxCell>
        <mxCell id="bymFwab5TeU9cgXAcqGG-161" style="edgeStyle=orthogonalEdgeStyle;curved=1;rounded=0;orthogonalLoop=1;jettySize=auto;html=1;exitX=0.5;exitY=0;exitDx=0;exitDy=0;entryX=0.556;entryY=0.983;entryDx=0;entryDy=0;entryPerimeter=0;fontFamily=Comic Sans MS;fontSize=10;fontColor=#000000;startArrow=none;startFill=0;strokeWidth=2;sketch=1;" edge="1" parent="1" source="bymFwab5TeU9cgXAcqGG-141" target="bymFwab5TeU9cgXAcqGG-139">
          <mxGeometry relative="1" as="geometry" />
        </mxCell>
        <mxCell id="bymFwab5TeU9cgXAcqGG-141" value="data" style="rounded=0;whiteSpace=wrap;html=1;shadow=0;sketch=0;fontFamily=Comic Sans MS;fontColor=#333333;fillColor=#f5f5f5;strokeColor=#666666;" vertex="1" parent="1">
          <mxGeometry x="710" y="947.5" width="93" height="60" as="geometry" />
        </mxCell>
        <mxCell id="bymFwab5TeU9cgXAcqGG-142" value="HTTP头部" style="rounded=0;whiteSpace=wrap;html=1;shadow=0;sketch=0;fontFamily=Comic Sans MS;fillColor=#dae8fc;strokeColor=#6c8ebf;" vertex="1" parent="1">
          <mxGeometry x="680" y="947.5" width="30" height="60" as="geometry" />
        </mxCell>
        <mxCell id="bymFwab5TeU9cgXAcqGG-160" style="edgeStyle=orthogonalEdgeStyle;curved=1;rounded=0;orthogonalLoop=1;jettySize=auto;html=1;exitX=0.5;exitY=0;exitDx=0;exitDy=0;entryX=0.5;entryY=1;entryDx=0;entryDy=0;fontFamily=Comic Sans MS;fontSize=10;fontColor=#000000;startArrow=none;startFill=0;strokeWidth=2;sketch=1;" edge="1" parent="1" source="bymFwab5TeU9cgXAcqGG-143" target="bymFwab5TeU9cgXAcqGG-141">
          <mxGeometry relative="1" as="geometry" />
        </mxCell>
        <mxCell id="bymFwab5TeU9cgXAcqGG-143" value="data" style="rounded=0;whiteSpace=wrap;html=1;shadow=0;sketch=0;fontFamily=Comic Sans MS;fontColor=#333333;fillColor=#f5f5f5;strokeColor=#666666;" vertex="1" parent="1">
          <mxGeometry x="708.5" y="1062.5" width="93" height="60" as="geometry" />
        </mxCell>
        <mxCell id="bymFwab5TeU9cgXAcqGG-144" value="HTTP头部" style="rounded=0;whiteSpace=wrap;html=1;shadow=0;sketch=0;fontFamily=Comic Sans MS;fillColor=#dae8fc;strokeColor=#6c8ebf;" vertex="1" parent="1">
          <mxGeometry x="678.5" y="1062.5" width="30" height="60" as="geometry" />
        </mxCell>
        <mxCell id="bymFwab5TeU9cgXAcqGG-145" value="TCP头部" style="rounded=0;whiteSpace=wrap;html=1;shadow=0;sketch=0;fontFamily=Comic Sans MS;fillColor=#dae8fc;strokeColor=#6c8ebf;" vertex="1" parent="1">
          <mxGeometry x="650" y="842.5" width="30" height="60" as="geometry" />
        </mxCell>
        <mxCell id="bymFwab5TeU9cgXAcqGG-146" value="TCP头部" style="rounded=0;whiteSpace=wrap;html=1;shadow=0;sketch=0;fontFamily=Comic Sans MS;fillColor=#dae8fc;strokeColor=#6c8ebf;" vertex="1" parent="1">
          <mxGeometry x="650" y="947.5" width="30" height="60" as="geometry" />
        </mxCell>
        <mxCell id="bymFwab5TeU9cgXAcqGG-147" value="IP头部" style="rounded=0;whiteSpace=wrap;html=1;shadow=0;sketch=0;fontFamily=Comic Sans MS;fillColor=#dae8fc;strokeColor=#6c8ebf;" vertex="1" parent="1">
          <mxGeometry x="620" y="947.5" width="30" height="60" as="geometry" />
        </mxCell>
        <mxCell id="bymFwab5TeU9cgXAcqGG-148" value="TCP头部" style="rounded=0;whiteSpace=wrap;html=1;shadow=0;sketch=0;fontFamily=Comic Sans MS;fillColor=#dae8fc;strokeColor=#6c8ebf;" vertex="1" parent="1">
          <mxGeometry x="648.5" y="1062.5" width="30" height="60" as="geometry" />
        </mxCell>
        <mxCell id="bymFwab5TeU9cgXAcqGG-149" value="IP头部" style="rounded=0;whiteSpace=wrap;html=1;shadow=0;sketch=0;fontFamily=Comic Sans MS;fillColor=#dae8fc;strokeColor=#6c8ebf;" vertex="1" parent="1">
          <mxGeometry x="618.5" y="1062.5" width="30" height="60" as="geometry" />
        </mxCell>
        <mxCell id="bymFwab5TeU9cgXAcqGG-150" value="MAC头部" style="rounded=0;whiteSpace=wrap;html=1;shadow=0;sketch=0;fontFamily=Comic Sans MS;fillColor=#dae8fc;strokeColor=#6c8ebf;" vertex="1" parent="1">
          <mxGeometry x="588.5" y="1062.5" width="30" height="60" as="geometry" />
        </mxCell>
        <mxCell id="bymFwab5TeU9cgXAcqGG-151" value="HTTP头部" style="rounded=0;whiteSpace=wrap;html=1;shadow=0;sketch=0;fontFamily=Comic Sans MS;fillColor=#dae8fc;strokeColor=#6c8ebf;" vertex="1" parent="1">
          <mxGeometry x="140" y="947.5" width="30" height="55" as="geometry" />
        </mxCell>
        <mxCell id="bymFwab5TeU9cgXAcqGG-152" value="TCP头部" style="rounded=0;whiteSpace=wrap;html=1;shadow=0;sketch=0;fontFamily=Comic Sans MS;fillColor=#dae8fc;strokeColor=#6c8ebf;" vertex="1" parent="1">
          <mxGeometry x="110" y="947.5" width="30" height="55" as="geometry" />
        </mxCell>
        <mxCell id="bymFwab5TeU9cgXAcqGG-159" style="edgeStyle=orthogonalEdgeStyle;curved=1;rounded=0;orthogonalLoop=1;jettySize=auto;html=1;exitX=1;exitY=0.5;exitDx=0;exitDy=0;exitPerimeter=0;entryX=0.453;entryY=1.005;entryDx=0;entryDy=0;entryPerimeter=0;fontFamily=Comic Sans MS;fontSize=10;fontColor=#000000;startArrow=none;startFill=0;strokeWidth=2;sketch=1;" edge="1" parent="1" source="bymFwab5TeU9cgXAcqGG-153" target="bymFwab5TeU9cgXAcqGG-143">
          <mxGeometry relative="1" as="geometry" />
        </mxCell>
        <mxCell id="bymFwab5TeU9cgXAcqGG-153" value="&lt;b&gt;&lt;font color=&quot;#000000&quot;&gt;网络光纤&lt;/font&gt;&lt;/b&gt;" style="html=1;outlineConnect=0;fillColor=#CCCCCC;strokeColor=#6881B3;gradientColor=none;gradientDirection=north;strokeWidth=2;shape=mxgraph.networks.bus;gradientColor=none;gradientDirection=north;fontColor=#ffffff;perimeter=backbonePerimeter;backboneSize=20;shadow=0;sketch=0;fontFamily=Comic Sans MS;fontSize=10;points=[[0,0.5,0,0,0],[1,0.5,0,0,0]];" vertex="1" parent="1">
          <mxGeometry x="330" y="1177.5" width="200" height="20" as="geometry" />
        </mxCell>
        <mxCell id="bymFwab5TeU9cgXAcqGG-168" value="" style="edgeStyle=orthogonalEdgeStyle;curved=1;rounded=0;sketch=1;orthogonalLoop=1;jettySize=auto;html=1;fontFamily=Comic Sans MS;fontSize=10;fontColor=#000000;startArrow=none;startFill=0;strokeWidth=2;" edge="1" parent="1" source="bymFwab5TeU9cgXAcqGG-165" target="bymFwab5TeU9cgXAcqGG-167">
          <mxGeometry relative="1" as="geometry" />
        </mxCell>
        <mxCell id="bymFwab5TeU9cgXAcqGG-165" value="浏览器用户" style="shape=umlActor;verticalLabelPosition=bottom;verticalAlign=top;html=1;outlineConnect=0;shadow=0;sketch=0;fontFamily=Comic Sans MS;fontSize=10;fontColor=#000000;fillColor=#F8CECC;" vertex="1" parent="1">
          <mxGeometry x="1050" y="740" width="30" height="60" as="geometry" />
        </mxCell>
        <mxCell id="bymFwab5TeU9cgXAcqGG-174" value="" style="edgeStyle=orthogonalEdgeStyle;curved=1;rounded=0;sketch=1;orthogonalLoop=1;jettySize=auto;html=1;fontFamily=Comic Sans MS;fontSize=10;fontColor=#000000;startArrow=none;startFill=0;strokeWidth=2;" edge="1" parent="1" source="bymFwab5TeU9cgXAcqGG-167" target="bymFwab5TeU9cgXAcqGG-173">
          <mxGeometry relative="1" as="geometry" />
        </mxCell>
        <mxCell id="bymFwab5TeU9cgXAcqGG-167" value="发起HTTP请求" style="whiteSpace=wrap;html=1;fontSize=10;fontFamily=Comic Sans MS;verticalAlign=top;fillColor=#F8CECC;fontColor=#000000;shadow=0;sketch=0;" vertex="1" parent="1">
          <mxGeometry x="1150" y="740" width="120" height="60" as="geometry" />
        </mxCell>
        <mxCell id="bymFwab5TeU9cgXAcqGG-176" value="" style="edgeStyle=orthogonalEdgeStyle;curved=1;rounded=0;sketch=1;orthogonalLoop=1;jettySize=auto;html=1;fontFamily=Comic Sans MS;fontSize=10;fontColor=#000000;startArrow=none;startFill=0;strokeWidth=2;" edge="1" parent="1" source="bymFwab5TeU9cgXAcqGG-173" target="bymFwab5TeU9cgXAcqGG-175">
          <mxGeometry relative="1" as="geometry">
            <Array as="points">
              <mxPoint x="1480" y="770.5" />
              <mxPoint x="1480" y="770.5" />
            </Array>
          </mxGeometry>
        </mxCell>
        <mxCell id="bymFwab5TeU9cgXAcqGG-178" value="" style="edgeStyle=orthogonalEdgeStyle;curved=1;rounded=0;sketch=1;orthogonalLoop=1;jettySize=auto;html=1;fontFamily=Comic Sans MS;fontSize=10;fontColor=#000000;startArrow=none;startFill=0;strokeWidth=2;" edge="1" parent="1" source="bymFwab5TeU9cgXAcqGG-173" target="bymFwab5TeU9cgXAcqGG-177">
          <mxGeometry relative="1" as="geometry" />
        </mxCell>
        <mxCell id="bymFwab5TeU9cgXAcqGG-173" value="&lt;br&gt;从缓存获取DNS域名缓存" style="rhombus;whiteSpace=wrap;html=1;fontSize=10;fontFamily=Comic Sans MS;verticalAlign=top;fillColor=#F8CECC;fontColor=#000000;shadow=0;sketch=0;" vertex="1" parent="1">
          <mxGeometry x="1370" y="730" width="80" height="80" as="geometry" />
        </mxCell>
        <mxCell id="bymFwab5TeU9cgXAcqGG-179" style="edgeStyle=orthogonalEdgeStyle;curved=1;rounded=0;sketch=1;orthogonalLoop=1;jettySize=auto;html=1;exitX=0.5;exitY=1;exitDx=0;exitDy=0;entryX=1;entryY=0.5;entryDx=0;entryDy=0;fontFamily=Comic Sans MS;fontSize=10;fontColor=#000000;startArrow=none;startFill=0;strokeWidth=2;" edge="1" parent="1" source="bymFwab5TeU9cgXAcqGG-175" target="bymFwab5TeU9cgXAcqGG-177">
          <mxGeometry relative="1" as="geometry" />
        </mxCell>
        <mxCell id="bymFwab5TeU9cgXAcqGG-175" value="请求dns服务器获取域名解析" style="whiteSpace=wrap;html=1;fontSize=10;fontFamily=Comic Sans MS;verticalAlign=top;fillColor=#F8CECC;fontColor=#000000;shadow=0;sketch=0;" vertex="1" parent="1">
          <mxGeometry x="1529" y="740" width="120" height="60" as="geometry" />
        </mxCell>
        <mxCell id="bymFwab5TeU9cgXAcqGG-183" value="" style="edgeStyle=orthogonalEdgeStyle;curved=1;rounded=0;sketch=1;orthogonalLoop=1;jettySize=auto;html=1;fontFamily=Comic Sans MS;fontSize=10;fontColor=#000000;startArrow=none;startFill=0;strokeWidth=2;" edge="1" parent="1" source="bymFwab5TeU9cgXAcqGG-177" target="bymFwab5TeU9cgXAcqGG-182">
          <mxGeometry relative="1" as="geometry" />
        </mxCell>
        <mxCell id="bymFwab5TeU9cgXAcqGG-177" value="三次握手建立TCP连接" style="whiteSpace=wrap;html=1;fontSize=10;fontFamily=Comic Sans MS;verticalAlign=top;fillColor=#F8CECC;fontColor=#000000;shadow=0;sketch=0;" vertex="1" parent="1">
          <mxGeometry x="1350" y="865" width="120" height="60" as="geometry" />
        </mxCell>
        <mxCell id="bymFwab5TeU9cgXAcqGG-180" value="未命中缓存" style="text;html=1;align=center;verticalAlign=middle;resizable=0;points=[];autosize=1;strokeColor=none;fillColor=none;fontSize=10;fontFamily=Comic Sans MS;fontColor=#000000;" vertex="1" parent="1">
          <mxGeometry x="1450" y="762.5" width="80" height="30" as="geometry" />
        </mxCell>
        <mxCell id="bymFwab5TeU9cgXAcqGG-181" value="命中缓存" style="text;html=1;align=center;verticalAlign=middle;resizable=0;points=[];autosize=1;strokeColor=none;fillColor=none;fontSize=10;fontFamily=Comic Sans MS;fontColor=#000000;" vertex="1" parent="1">
          <mxGeometry x="1409" y="812.5" width="70" height="30" as="geometry" />
        </mxCell>
        <mxCell id="bymFwab5TeU9cgXAcqGG-185" value="" style="edgeStyle=orthogonalEdgeStyle;curved=1;rounded=0;sketch=1;orthogonalLoop=1;jettySize=auto;html=1;fontFamily=Comic Sans MS;fontSize=10;fontColor=#000000;startArrow=none;startFill=0;strokeWidth=2;" edge="1" parent="1" source="bymFwab5TeU9cgXAcqGG-182" target="bymFwab5TeU9cgXAcqGG-184">
          <mxGeometry relative="1" as="geometry" />
        </mxCell>
        <mxCell id="bymFwab5TeU9cgXAcqGG-182" value="IP协议根据路由解析IP地址，并且根据arp获取对应的网卡的mac" style="whiteSpace=wrap;html=1;fontSize=10;fontFamily=Comic Sans MS;verticalAlign=top;fillColor=#F8CECC;fontColor=#000000;shadow=0;sketch=0;" vertex="1" parent="1">
          <mxGeometry x="1350" y="1005" width="120" height="60" as="geometry" />
        </mxCell>
        <mxCell id="bymFwab5TeU9cgXAcqGG-188" value="" style="edgeStyle=orthogonalEdgeStyle;curved=1;rounded=0;sketch=1;orthogonalLoop=1;jettySize=auto;html=1;fontFamily=Comic Sans MS;fontSize=10;fontColor=#000000;startArrow=none;startFill=0;strokeWidth=2;" edge="1" parent="1" source="bymFwab5TeU9cgXAcqGG-184" target="bymFwab5TeU9cgXAcqGG-187">
          <mxGeometry relative="1" as="geometry" />
        </mxCell>
        <mxCell id="bymFwab5TeU9cgXAcqGG-184" value="网卡收到数据，将二进制的数据转换为电信号发送到交换机" style="whiteSpace=wrap;html=1;fontSize=10;fontFamily=Comic Sans MS;verticalAlign=top;fillColor=#F8CECC;fontColor=#000000;shadow=0;sketch=0;" vertex="1" parent="1">
          <mxGeometry x="1350" y="1145" width="120" height="60" as="geometry" />
        </mxCell>
        <mxCell id="bymFwab5TeU9cgXAcqGG-190" value="" style="edgeStyle=orthogonalEdgeStyle;curved=1;rounded=0;sketch=1;orthogonalLoop=1;jettySize=auto;html=1;fontFamily=Comic Sans MS;fontSize=10;fontColor=#000000;startArrow=none;startFill=0;strokeWidth=2;" edge="1" parent="1" source="bymFwab5TeU9cgXAcqGG-187" target="bymFwab5TeU9cgXAcqGG-189">
          <mxGeometry relative="1" as="geometry" />
        </mxCell>
        <mxCell id="bymFwab5TeU9cgXAcqGG-187" value="交换机根据本机缓存的mac-接口映射表，将数据传输到指定的网络接口" style="whiteSpace=wrap;html=1;fontSize=10;fontFamily=Comic Sans MS;verticalAlign=top;fillColor=#F8CECC;fontColor=#000000;shadow=0;sketch=0;" vertex="1" parent="1">
          <mxGeometry x="1150" y="1145" width="120" height="60" as="geometry" />
        </mxCell>
        <mxCell id="bymFwab5TeU9cgXAcqGG-192" value="" style="edgeStyle=orthogonalEdgeStyle;curved=1;rounded=0;sketch=1;orthogonalLoop=1;jettySize=auto;html=1;fontFamily=Comic Sans MS;fontSize=10;fontColor=#000000;startArrow=none;startFill=0;strokeWidth=2;" edge="1" parent="1" source="bymFwab5TeU9cgXAcqGG-189" target="bymFwab5TeU9cgXAcqGG-191">
          <mxGeometry relative="1" as="geometry" />
        </mxCell>
        <mxCell id="bymFwab5TeU9cgXAcqGG-189" value="路由器收到数据之后把MAC首部换成自己的MAC，然后把数据发送到网络" style="whiteSpace=wrap;html=1;fontSize=10;fontFamily=Comic Sans MS;verticalAlign=top;fillColor=#F8CECC;fontColor=#000000;shadow=0;sketch=0;" vertex="1" parent="1">
          <mxGeometry x="1150" y="1005" width="120" height="60" as="geometry" />
        </mxCell>
        <mxCell id="bymFwab5TeU9cgXAcqGG-191" value="服务器端路由器收到数据，进行解析，一层一层转发给服务器" style="ellipse;whiteSpace=wrap;html=1;fontSize=10;fontFamily=Comic Sans MS;verticalAlign=top;fillColor=#F8CECC;fontColor=#000000;shadow=0;sketch=0;" vertex="1" parent="1">
          <mxGeometry x="1020" y="875" width="120" height="60" as="geometry" />
        </mxCell>
        <mxCell id="bymFwab5TeU9cgXAcqGG-195" value="" style="rounded=1;whiteSpace=wrap;html=1;shadow=0;sketch=1;fontFamily=Comic Sans MS;fontColor=#000000;" vertex="1" parent="1">
          <mxGeometry x="54" y="1255" width="738" height="780" as="geometry" />
        </mxCell>
        <mxCell id="bymFwab5TeU9cgXAcqGG-199" style="edgeStyle=none;rounded=0;sketch=1;orthogonalLoop=1;jettySize=auto;html=1;exitX=0.079;exitY=0.179;exitDx=0;exitDy=0;exitPerimeter=0;fontFamily=Comic Sans MS;fontSize=10;fontColor=#000000;startArrow=none;startFill=0;strokeWidth=2;entryX=0.39;entryY=1;entryDx=0;entryDy=0;entryPerimeter=0;" edge="1" parent="1" target="bymFwab5TeU9cgXAcqGG-197">
          <mxGeometry relative="1" as="geometry">
            <mxPoint x="132.30200000000013" y="1764.62" as="sourcePoint" />
          </mxGeometry>
        </mxCell>
        <mxCell id="bymFwab5TeU9cgXAcqGG-201" value="&lt;font style=&quot;font-size: 16px;&quot;&gt;SYN=1&lt;br&gt;seq=客户端随机数&lt;br&gt;&lt;/font&gt;" style="edgeLabel;html=1;align=center;verticalAlign=middle;resizable=0;points=[];fontSize=10;fontFamily=Comic Sans MS;fontColor=#000000;" vertex="1" connectable="0" parent="bymFwab5TeU9cgXAcqGG-199">
          <mxGeometry x="-0.2422" y="-2" relative="1" as="geometry">
            <mxPoint x="-1" as="offset" />
          </mxGeometry>
        </mxCell>
        <mxCell id="bymFwab5TeU9cgXAcqGG-210" style="edgeStyle=none;rounded=0;sketch=1;orthogonalLoop=1;jettySize=auto;html=1;exitX=0.079;exitY=0.359;exitDx=0;exitDy=0;exitPerimeter=0;fontFamily=Comic Sans MS;fontSize=16;fontColor=#000000;startArrow=none;startFill=0;strokeWidth=2;entryX=0.94;entryY=1;entryDx=0;entryDy=0;entryPerimeter=0;" edge="1" parent="1" target="bymFwab5TeU9cgXAcqGG-197">
          <mxGeometry relative="1" as="geometry">
            <mxPoint x="132.30200000000013" y="1905.0200000000004" as="sourcePoint" />
          </mxGeometry>
        </mxCell>
        <mxCell id="bymFwab5TeU9cgXAcqGG-211" value="ACK=1&lt;br&gt;ack=seq+1" style="edgeLabel;html=1;align=center;verticalAlign=middle;resizable=0;points=[];fontSize=16;fontFamily=Comic Sans MS;fontColor=#000000;" vertex="1" connectable="0" parent="bymFwab5TeU9cgXAcqGG-210">
          <mxGeometry x="-0.2103" relative="1" as="geometry">
            <mxPoint as="offset" />
          </mxGeometry>
        </mxCell>
        <mxCell id="bymFwab5TeU9cgXAcqGG-196" value="" style="line;strokeWidth=4;direction=south;html=1;perimeter=backbonePerimeter;points=[[0,0.05,0,0,0],[0,0.1,0,0,0],[0,0.14,0,0,0],[0,0.19,0,0,0],[0,0.24,0,0,0],[0,0.29,0,0,0],[0,0.33,0,0,0],[0,0.38,0,0,0],[0,0.43,0,0,0],[0,0.48,0,0,0],[0,0.52,0,0,0],[0,0.57,0,0,0],[0,0.62,0,0,0],[0,0.67,0,0,0],[0,0.71,0,0,0],[0,0.76,0,0,0],[0,0.81,0,0,0],[0,0.86,0,0,0],[0,0.9,0,0,0],[0,0.95,0,0,0],[0.06,0,0,0,0],[0.06,1,0,0,0],[0.11,0,0,0,0],[0.11,1,0,0,0],[0.17,0,0,0,0],[0.17,1,0,0,0],[0.22,0,0,0,0],[0.22,1,0,0,0],[0.28,0,0,0,0],[0.28,1,0,0,0],[0.33,0,0,0,0],[0.33,1,0,0,0],[0.39,0,0,0,0],[0.39,1,0,0,0],[0.44,0,0,0,0],[0.44,1,0,0,0],[0.5,0,0,0,0],[0.5,0.83,0,0,0],[0.5,1,0,0,0],[0.56,0,0,0,0],[0.56,1,0,0,0],[0.61,0,0,0,0],[0.61,1,0,0,0],[0.67,0,0,0,0],[0.67,1,0,0,0],[0.72,0,0,0,0],[0.72,1,0,0,0],[0.78,0,0,0,0],[0.78,1,0,0,0],[0.83,0,0,0,0],[0.83,1,0,0,0],[0.89,0,0,0,0],[0.89,0.54,0,0,0],[0.89,1,0,0,0],[0.94,0,0,0,0],[0.94,0.5,0,0,0],[0.94,1,0,0,0],[1,0.05,0,0,0],[1,0.1,0,0,0],[1,0.14,0,0,0],[1,0.19,0,0,0],[1,0.24,0,0,0],[1,0.29,0,0,0],[1,0.33,0,0,0],[1,0.38,0,0,0],[1,0.43,0,0,0],[1,0.48,0,0,0],[1,0.52,0,0,0],[1,0.57,0,0,0],[1,0.62,0,0,0],[1,0.63,0,0,0],[1,0.67,0,0,0],[1,0.71,0,0,0],[1,0.76,0,0,0],[1,0.81,0,0,0],[1,0.86,0,0,0],[1,0.9,0,0,0],[1,0.95,0,0,0]];outlineConnect=0;shadow=0;sketch=0;fontFamily=Comic Sans MS;fontSize=10;fontColor=#000000;fillColor=#F8CECC;" vertex="1" parent="1">
          <mxGeometry x="116.5" y="1715" width="18" height="270" as="geometry" />
        </mxCell>
        <mxCell id="bymFwab5TeU9cgXAcqGG-203" style="edgeStyle=none;rounded=0;sketch=1;orthogonalLoop=1;jettySize=auto;html=1;entryX=0.44;entryY=0;entryDx=0;entryDy=0;entryPerimeter=0;fontFamily=Comic Sans MS;fontSize=16;fontColor=#000000;startArrow=none;startFill=0;strokeWidth=2;exitX=0.67;exitY=1;exitDx=0;exitDy=0;exitPerimeter=0;" edge="1" parent="1" source="bymFwab5TeU9cgXAcqGG-197" target="bymFwab5TeU9cgXAcqGG-196">
          <mxGeometry relative="1" as="geometry" />
        </mxCell>
        <mxCell id="bymFwab5TeU9cgXAcqGG-205" value="ACK=1&lt;br&gt;ack=seq+1&lt;br&gt;seq=服务端随机数" style="edgeLabel;html=1;align=center;verticalAlign=middle;resizable=0;points=[];fontSize=16;fontFamily=Comic Sans MS;fontColor=#000000;" vertex="1" connectable="0" parent="bymFwab5TeU9cgXAcqGG-203">
          <mxGeometry x="0.292" y="2" relative="1" as="geometry">
            <mxPoint as="offset" />
          </mxGeometry>
        </mxCell>
        <mxCell id="bymFwab5TeU9cgXAcqGG-209" style="edgeStyle=none;rounded=0;sketch=1;orthogonalLoop=1;jettySize=auto;html=1;exitX=0.5;exitY=0;exitDx=0;exitDy=0;exitPerimeter=0;entryX=0;entryY=0.5;entryDx=0;entryDy=0;fontFamily=Comic Sans MS;fontSize=16;fontColor=#000000;startArrow=none;startFill=0;strokeWidth=2;" edge="1" parent="1" source="bymFwab5TeU9cgXAcqGG-197" target="bymFwab5TeU9cgXAcqGG-208">
          <mxGeometry relative="1" as="geometry" />
        </mxCell>
        <mxCell id="bymFwab5TeU9cgXAcqGG-197" value="" style="line;strokeWidth=4;direction=south;html=1;perimeter=backbonePerimeter;points=[[0,0.05,0,0,0],[0,0.1,0,0,0],[0,0.14,0,0,0],[0,0.19,0,0,0],[0,0.24,0,0,0],[0,0.29,0,0,0],[0,0.33,0,0,0],[0,0.38,0,0,0],[0,0.43,0,0,0],[0,0.48,0,0,0],[0,0.52,0,0,0],[0,0.57,0,0,0],[0,0.62,0,0,0],[0,0.67,0,0,0],[0,0.71,0,0,0],[0,0.76,0,0,0],[0,0.81,0,0,0],[0,0.86,0,0,0],[0,0.9,0,0,0],[0,0.95,0,0,0],[0.06,0,0,0,0],[0.06,1,0,0,0],[0.11,0,0,0,0],[0.11,1,0,0,0],[0.17,0,0,0,0],[0.17,1,0,0,0],[0.22,0,0,0,0],[0.22,1,0,0,0],[0.28,0,0,0,0],[0.28,1,0,0,0],[0.33,0,0,0,0],[0.33,1,0,0,0],[0.39,0,0,0,0],[0.39,1,0,0,0],[0.44,0,0,0,0],[0.44,1,0,0,0],[0.5,0,0,0,0],[0.5,1,0,0,0],[0.56,0,0,0,0],[0.56,1,0,0,0],[0.61,0,0,0,0],[0.61,1,0,0,0],[0.67,0,0,0,0],[0.67,1,0,0,0],[0.72,0,0,0,0],[0.72,1,0,0,0],[0.78,0,0,0,0],[0.78,1,0,0,0],[0.83,0,0,0,0],[0.83,1,0,0,0],[0.89,0,0,0,0],[0.89,1,0,0,0],[0.94,0,0,0,0],[0.94,1,0,0,0]];outlineConnect=0;shadow=0;sketch=0;fontFamily=Comic Sans MS;fontSize=10;fontColor=#000000;fillColor=#F8CECC;" vertex="1" parent="1">
          <mxGeometry x="562.5" y="1715" width="18" height="260" as="geometry" />
        </mxCell>
        <mxCell id="bymFwab5TeU9cgXAcqGG-206" value="Client" style="text;strokeColor=none;fillColor=none;align=left;verticalAlign=middle;spacingLeft=4;spacingRight=4;overflow=hidden;points=[[0,0.5],[1,0.5]];portConstraint=eastwest;rotatable=0;shadow=0;sketch=0;fontFamily=Comic Sans MS;fontSize=16;fontColor=#000000;" vertex="1" parent="1">
          <mxGeometry x="104" y="1675" width="80" height="30" as="geometry" />
        </mxCell>
        <mxCell id="bymFwab5TeU9cgXAcqGG-207" value="Server" style="text;strokeColor=none;fillColor=none;align=left;verticalAlign=middle;spacingLeft=4;spacingRight=4;overflow=hidden;points=[[0,0.5],[1,0.5]];portConstraint=eastwest;rotatable=0;shadow=0;sketch=0;fontFamily=Comic Sans MS;fontSize=16;fontColor=#000000;" vertex="1" parent="1">
          <mxGeometry x="527" y="1675" width="80" height="30" as="geometry" />
        </mxCell>
        <mxCell id="bymFwab5TeU9cgXAcqGG-208" value="SYNC_RCV" style="rounded=1;whiteSpace=wrap;html=1;shadow=0;sketch=0;fontFamily=Comic Sans MS;fontSize=16;fontColor=#000000;fillColor=#F8CECC;" vertex="1" parent="1">
          <mxGeometry x="652" y="1815" width="120" height="60" as="geometry" />
        </mxCell>
        <mxCell id="bymFwab5TeU9cgXAcqGG-360" value="" style="rounded=0;whiteSpace=wrap;html=1;shadow=0;sketch=0;fontFamily=Comic Sans MS;fontSize=16;" vertex="1" parent="1">
          <mxGeometry x="125.5" y="1265" width="580" height="380" as="geometry" />
        </mxCell>
        <mxCell id="bymFwab5TeU9cgXAcqGG-361" value="" style="rounded=0;whiteSpace=wrap;html=1;shadow=0;sketch=0;fontFamily=Comic Sans MS;fontSize=16;" vertex="1" parent="1">
          <mxGeometry x="125.5" y="1265" width="580" height="50" as="geometry" />
        </mxCell>
        <mxCell id="bymFwab5TeU9cgXAcqGG-362" value="序列号（seq）32位" style="rounded=0;whiteSpace=wrap;html=1;shadow=0;sketch=0;fontFamily=Comic Sans MS;fontSize=16;fillColor=#ffe6cc;strokeColor=#d79b00;" vertex="1" parent="1">
          <mxGeometry x="125.5" y="1315" width="580" height="50" as="geometry" />
        </mxCell>
        <mxCell id="bymFwab5TeU9cgXAcqGG-363" value="确认号（ack）32位" style="rounded=0;whiteSpace=wrap;html=1;shadow=0;sketch=0;fontFamily=Comic Sans MS;fontSize=16;fillColor=#fff2cc;strokeColor=#d6b656;" vertex="1" parent="1">
          <mxGeometry x="125.5" y="1365" width="580" height="50" as="geometry" />
        </mxCell>
        <mxCell id="bymFwab5TeU9cgXAcqGG-364" value="" style="rounded=0;whiteSpace=wrap;html=1;shadow=0;sketch=0;fontFamily=Comic Sans MS;fontSize=16;" vertex="1" parent="1">
          <mxGeometry x="125.5" y="1415" width="580" height="50" as="geometry" />
        </mxCell>
        <mxCell id="bymFwab5TeU9cgXAcqGG-365" value="" style="rounded=0;whiteSpace=wrap;html=1;shadow=0;sketch=0;fontFamily=Comic Sans MS;fontSize=16;" vertex="1" parent="1">
          <mxGeometry x="125.5" y="1465" width="580" height="50" as="geometry" />
        </mxCell>
        <mxCell id="bymFwab5TeU9cgXAcqGG-366" value="选项" style="rounded=0;whiteSpace=wrap;html=1;shadow=0;sketch=0;fontFamily=Comic Sans MS;fontSize=16;fillColor=#e1d5e7;strokeColor=#9673a6;" vertex="1" parent="1">
          <mxGeometry x="125.5" y="1515" width="580" height="50" as="geometry" />
        </mxCell>
        <mxCell id="bymFwab5TeU9cgXAcqGG-367" value="数据" style="rounded=0;whiteSpace=wrap;html=1;shadow=0;sketch=0;fontFamily=Comic Sans MS;fontSize=16;" vertex="1" parent="1">
          <mxGeometry x="125.5" y="1565" width="580" height="90" as="geometry" />
        </mxCell>
        <mxCell id="bymFwab5TeU9cgXAcqGG-368" value="源端口号（16位）" style="rounded=0;whiteSpace=wrap;html=1;shadow=0;sketch=0;fontFamily=Comic Sans MS;fontSize=16;fontColor=#000000;fillColor=#F8CECC;" vertex="1" parent="1">
          <mxGeometry x="125.5" y="1265" width="290" height="50" as="geometry" />
        </mxCell>
        <mxCell id="bymFwab5TeU9cgXAcqGG-369" value="目标端口号（16位）" style="rounded=0;whiteSpace=wrap;html=1;shadow=0;sketch=0;fontFamily=Comic Sans MS;fontSize=16;fontColor=#000000;fillColor=#F8CECC;" vertex="1" parent="1">
          <mxGeometry x="415.5" y="1265" width="290" height="50" as="geometry" />
        </mxCell>
        <mxCell id="bymFwab5TeU9cgXAcqGG-370" value="" style="rounded=0;whiteSpace=wrap;html=1;shadow=0;sketch=0;fontFamily=Comic Sans MS;fontSize=16;fontColor=#000000;fillColor=#F8CECC;" vertex="1" parent="1">
          <mxGeometry x="125.5" y="1415" width="290" height="50" as="geometry" />
        </mxCell>
        <mxCell id="bymFwab5TeU9cgXAcqGG-371" value="窗口大小&lt;span style=&quot;color: rgb(0, 0, 0);&quot;&gt;(16位)&lt;/span&gt;" style="rounded=0;whiteSpace=wrap;html=1;shadow=0;sketch=0;fontFamily=Comic Sans MS;fontSize=16;fontColor=#333333;fillColor=#f5f5f5;strokeColor=#666666;" vertex="1" parent="1">
          <mxGeometry x="415.5" y="1415" width="290" height="50" as="geometry" />
        </mxCell>
        <mxCell id="bymFwab5TeU9cgXAcqGG-372" value="&lt;font style=&quot;font-size: 10px;&quot;&gt;首部长度（4位）&lt;/font&gt;" style="rounded=0;whiteSpace=wrap;html=1;shadow=0;sketch=0;fontFamily=Comic Sans MS;fontSize=16;fillColor=#fad7ac;strokeColor=#b46504;" vertex="1" parent="1">
          <mxGeometry x="125.5" y="1415" width="80" height="50" as="geometry" />
        </mxCell>
        <mxCell id="bymFwab5TeU9cgXAcqGG-373" value="&lt;font style=&quot;font-size: 14px;&quot;&gt;保留（6位）&lt;/font&gt;" style="rounded=0;whiteSpace=wrap;html=1;shadow=0;sketch=0;fontFamily=Comic Sans MS;fontSize=16;fillColor=#b1ddf0;strokeColor=#10739e;" vertex="1" parent="1">
          <mxGeometry x="205.5" y="1415" width="90" height="50" as="geometry" />
        </mxCell>
        <mxCell id="bymFwab5TeU9cgXAcqGG-374" value="A&lt;br&gt;C&lt;br&gt;K" style="rounded=0;whiteSpace=wrap;html=1;shadow=0;sketch=0;fontFamily=Comic Sans MS;fontSize=16;fontColor=#000000;fillColor=#F8CECC;" vertex="1" parent="1">
          <mxGeometry x="314.5" y="1415" width="20" height="50" as="geometry" />
        </mxCell>
        <mxCell id="bymFwab5TeU9cgXAcqGG-375" value="U&lt;br&gt;R&lt;br&gt;G" style="rounded=0;whiteSpace=wrap;html=1;shadow=0;sketch=0;fontFamily=Comic Sans MS;fontSize=16;fontColor=#000000;fillColor=#F8CECC;" vertex="1" parent="1">
          <mxGeometry x="335.5" y="1415" width="20" height="50" as="geometry" />
        </mxCell>
        <mxCell id="bymFwab5TeU9cgXAcqGG-376" value="R&lt;br&gt;S&lt;br&gt;T" style="rounded=0;whiteSpace=wrap;html=1;shadow=0;sketch=0;fontFamily=Comic Sans MS;fontSize=16;fontColor=#000000;fillColor=#F8CECC;" vertex="1" parent="1">
          <mxGeometry x="355.5" y="1415" width="20" height="50" as="geometry" />
        </mxCell>
        <mxCell id="bymFwab5TeU9cgXAcqGG-377" value="P&lt;br&gt;S&lt;br&gt;H" style="rounded=0;whiteSpace=wrap;html=1;shadow=0;sketch=0;fontFamily=Comic Sans MS;fontSize=16;fontColor=#000000;fillColor=#F8CECC;" vertex="1" parent="1">
          <mxGeometry x="374.5" y="1415" width="20" height="50" as="geometry" />
        </mxCell>
        <mxCell id="bymFwab5TeU9cgXAcqGG-378" value="F&lt;br&gt;I&lt;br&gt;N" style="rounded=0;whiteSpace=wrap;html=1;shadow=0;sketch=0;fontFamily=Comic Sans MS;fontSize=16;fontColor=#000000;fillColor=#F8CECC;" vertex="1" parent="1">
          <mxGeometry x="394.5" y="1415" width="20" height="50" as="geometry" />
        </mxCell>
        <mxCell id="bymFwab5TeU9cgXAcqGG-379" value="S&lt;br&gt;Y&lt;br&gt;N" style="rounded=0;whiteSpace=wrap;html=1;shadow=0;sketch=0;fontFamily=Comic Sans MS;fontSize=16;fontColor=#000000;fillColor=#F8CECC;" vertex="1" parent="1">
          <mxGeometry x="294.5" y="1415" width="20" height="50" as="geometry" />
        </mxCell>
        <mxCell id="bymFwab5TeU9cgXAcqGG-380" value="校验和(16位)" style="rounded=0;whiteSpace=wrap;html=1;shadow=0;sketch=0;fontFamily=Comic Sans MS;fontSize=16;fillColor=#d5e8d4;strokeColor=#82b366;" vertex="1" parent="1">
          <mxGeometry x="124.5" y="1465" width="290" height="50" as="geometry" />
        </mxCell>
        <mxCell id="bymFwab5TeU9cgXAcqGG-381" value="紧急指针(16位)" style="rounded=0;whiteSpace=wrap;html=1;shadow=0;sketch=0;fontFamily=Comic Sans MS;fontSize=16;fillColor=#dae8fc;strokeColor=#6c8ebf;" vertex="1" parent="1">
          <mxGeometry x="415.5" y="1465" width="290" height="50" as="geometry" />
        </mxCell>
        <mxCell id="bymFwab5TeU9cgXAcqGG-383" style="edgeStyle=none;rounded=0;sketch=1;orthogonalLoop=1;jettySize=auto;html=1;exitX=0.5;exitY=0;exitDx=0;exitDy=0;exitPerimeter=0;entryX=0;entryY=0.5;entryDx=0;entryDy=0;fontFamily=Comic Sans MS;fontSize=16;fontColor=#000000;startArrow=none;startFill=0;strokeWidth=2;" edge="1" parent="1" target="bymFwab5TeU9cgXAcqGG-384">
          <mxGeometry relative="1" as="geometry">
            <mxPoint x="572.75" y="1965" as="sourcePoint" />
          </mxGeometry>
        </mxCell>
        <mxCell id="bymFwab5TeU9cgXAcqGG-384" value="Accept" style="rounded=1;whiteSpace=wrap;html=1;shadow=0;sketch=0;fontFamily=Comic Sans MS;fontSize=16;fontColor=#000000;fillColor=#F8CECC;" vertex="1" parent="1">
          <mxGeometry x="644.25" y="1935" width="120" height="60" as="geometry" />
        </mxCell>
        <mxCell id="bymFwab5TeU9cgXAcqGG-413" value="" style="rounded=1;whiteSpace=wrap;html=1;shadow=0;sketch=1;fontFamily=Comic Sans MS;fontColor=#000000;" vertex="1" parent="1">
          <mxGeometry x="921" y="1250" width="738" height="780" as="geometry" />
        </mxCell>
        <mxCell id="bymFwab5TeU9cgXAcqGG-414" style="edgeStyle=none;rounded=0;sketch=1;orthogonalLoop=1;jettySize=auto;html=1;exitX=0.079;exitY=0.179;exitDx=0;exitDy=0;exitPerimeter=0;fontFamily=Comic Sans MS;fontSize=10;fontColor=#000000;startArrow=none;startFill=0;strokeWidth=2;entryX=0.39;entryY=1;entryDx=0;entryDy=0;entryPerimeter=0;" edge="1" parent="1">
          <mxGeometry relative="1" as="geometry">
            <mxPoint x="1064.902" y="1710" as="sourcePoint" />
            <mxPoint x="1495.1" y="1761.7800000000002" as="targetPoint" />
          </mxGeometry>
        </mxCell>
        <mxCell id="bymFwab5TeU9cgXAcqGG-415" value="&lt;font style=&quot;font-size: 16px;&quot;&gt;FIN=1&lt;br&gt;seq = n&lt;br&gt;&lt;/font&gt;" style="edgeLabel;html=1;align=center;verticalAlign=middle;resizable=0;points=[];fontSize=10;fontFamily=Comic Sans MS;fontColor=#000000;" vertex="1" connectable="0" parent="bymFwab5TeU9cgXAcqGG-414">
          <mxGeometry x="-0.2422" y="-2" relative="1" as="geometry">
            <mxPoint x="-1" as="offset" />
          </mxGeometry>
        </mxCell>
        <mxCell id="bymFwab5TeU9cgXAcqGG-416" style="edgeStyle=none;rounded=0;sketch=1;orthogonalLoop=1;jettySize=auto;html=1;exitX=0.079;exitY=0.359;exitDx=0;exitDy=0;exitPerimeter=0;fontFamily=Comic Sans MS;fontSize=16;fontColor=#000000;startArrow=classic;startFill=1;strokeWidth=2;entryX=0.94;entryY=1;entryDx=0;entryDy=0;entryPerimeter=0;endArrow=none;endFill=0;" edge="1" parent="1">
          <mxGeometry relative="1" as="geometry">
            <mxPoint x="1064.902" y="1850.4000000000005" as="sourcePoint" />
            <mxPoint x="1495.1" y="1904.7800000000002" as="targetPoint" />
          </mxGeometry>
        </mxCell>
        <mxCell id="bymFwab5TeU9cgXAcqGG-417" value="ACK=1&lt;br&gt;FIN=1&lt;br&gt;seq=w&lt;br&gt;ack=seq+1" style="edgeLabel;html=1;align=center;verticalAlign=middle;resizable=0;points=[];fontSize=16;fontFamily=Comic Sans MS;fontColor=#000000;" vertex="1" connectable="0" parent="bymFwab5TeU9cgXAcqGG-416">
          <mxGeometry x="-0.2103" relative="1" as="geometry">
            <mxPoint x="94" y="-2" as="offset" />
          </mxGeometry>
        </mxCell>
        <mxCell id="bymFwab5TeU9cgXAcqGG-451" style="edgeStyle=none;rounded=0;sketch=1;orthogonalLoop=1;jettySize=auto;html=1;exitX=0.72;exitY=0;exitDx=0;exitDy=0;exitPerimeter=0;entryX=0.94;entryY=1;entryDx=0;entryDy=0;entryPerimeter=0;fontFamily=Comic Sans MS;fontSize=14;fontColor=#000000;startArrow=none;startFill=0;strokeWidth=2;" edge="1" parent="1" source="bymFwab5TeU9cgXAcqGG-418" target="bymFwab5TeU9cgXAcqGG-422">
          <mxGeometry relative="1" as="geometry" />
        </mxCell>
        <mxCell id="bymFwab5TeU9cgXAcqGG-452" value="ACK=1&lt;br&gt;ack = w+1&lt;br&gt;seq = n+1" style="edgeLabel;html=1;align=center;verticalAlign=middle;resizable=0;points=[];fontSize=14;fontFamily=Comic Sans MS;fontColor=#000000;" vertex="1" connectable="0" parent="bymFwab5TeU9cgXAcqGG-451">
          <mxGeometry x="-0.4919" y="1" relative="1" as="geometry">
            <mxPoint as="offset" />
          </mxGeometry>
        </mxCell>
        <mxCell id="bymFwab5TeU9cgXAcqGG-418" value="" style="line;strokeWidth=4;direction=south;html=1;perimeter=backbonePerimeter;points=[[0,0.05,0,0,0],[0,0.1,0,0,0],[0,0.14,0,0,0],[0,0.19,0,0,0],[0,0.24,0,0,0],[0,0.29,0,0,0],[0,0.33,0,0,0],[0,0.38,0,0,0],[0,0.43,0,0,0],[0,0.48,0,0,0],[0,0.52,0,0,0],[0,0.57,0,0,0],[0,0.62,0,0,0],[0,0.67,0,0,0],[0,0.71,0,0,0],[0,0.76,0,0,0],[0,0.81,0,0,0],[0,0.86,0,0,0],[0,0.9,0,0,0],[0,0.95,0,0,0],[0.06,0,0,0,0],[0.06,1,0,0,0],[0.11,0,0,0,0],[0.11,1,0,0,0],[0.17,0,0,0,0],[0.17,1,0,0,0],[0.22,0,0,0,0],[0.22,1,0,0,0],[0.28,0,0,0,0],[0.28,1,0,0,0],[0.33,0,0,0,0],[0.33,1,0,0,0],[0.39,0,0,0,0],[0.39,1,0,0,0],[0.44,0,0,0,0],[0.44,1,0,0,0],[0.5,0,0,0,0],[0.5,0.83,0,0,0],[0.5,1,0,0,0],[0.56,0,0,0,0],[0.56,1,0,0,0],[0.61,0,0,0,0],[0.61,1,0,0,0],[0.67,0,0,0,0],[0.67,1,0,0,0],[0.72,0,0,0,0],[0.72,1,0,0,0],[0.78,0,0,0,0],[0.78,1,0,0,0],[0.83,0,0,0,0],[0.83,1,0,0,0],[0.89,0,0,0,0],[0.89,0.54,0,0,0],[0.89,1,0,0,0],[0.94,0,0,0,0],[0.94,0.5,0,0,0],[0.94,1,0,0,0],[1,0.05,0,0,0],[1,0.1,0,0,0],[1,0.14,0,0,0],[1,0.19,0,0,0],[1,0.24,0,0,0],[1,0.29,0,0,0],[1,0.33,0,0,0],[1,0.38,0,0,0],[1,0.43,0,0,0],[1,0.48,0,0,0],[1,0.52,0,0,0],[1,0.57,0,0,0],[1,0.62,0,0,0],[1,0.63,0,0,0],[1,0.67,0,0,0],[1,0.71,0,0,0],[1,0.76,0,0,0],[1,0.81,0,0,0],[1,0.86,0,0,0],[1,0.9,0,0,0],[1,0.95,0,0,0]];outlineConnect=0;shadow=0;sketch=0;fontFamily=Comic Sans MS;fontSize=10;fontColor=#000000;fillColor=#F8CECC;" vertex="1" parent="1">
          <mxGeometry x="1051" y="1705" width="18" height="270" as="geometry" />
        </mxCell>
        <mxCell id="bymFwab5TeU9cgXAcqGG-419" style="edgeStyle=none;rounded=0;sketch=1;orthogonalLoop=1;jettySize=auto;html=1;entryX=0.44;entryY=0;entryDx=0;entryDy=0;entryPerimeter=0;fontFamily=Comic Sans MS;fontSize=16;fontColor=#000000;startArrow=none;startFill=0;strokeWidth=2;exitX=0.67;exitY=1;exitDx=0;exitDy=0;exitPerimeter=0;" edge="1" parent="1">
          <mxGeometry relative="1" as="geometry">
            <mxPoint x="1495.1" y="1834.58" as="sourcePoint" />
            <mxPoint x="1067.1" y="1779.1800000000003" as="targetPoint" />
          </mxGeometry>
        </mxCell>
        <mxCell id="bymFwab5TeU9cgXAcqGG-420" value="ACK=1&lt;br&gt;seq = m&lt;br&gt;ack=seq+1" style="edgeLabel;html=1;align=center;verticalAlign=middle;resizable=0;points=[];fontSize=16;fontFamily=Comic Sans MS;fontColor=#000000;" vertex="1" connectable="0" parent="bymFwab5TeU9cgXAcqGG-419">
          <mxGeometry x="0.292" y="2" relative="1" as="geometry">
            <mxPoint as="offset" />
          </mxGeometry>
        </mxCell>
        <mxCell id="bymFwab5TeU9cgXAcqGG-422" value="" style="line;strokeWidth=4;direction=south;html=1;perimeter=backbonePerimeter;points=[[0,0.05,0,0,0],[0,0.1,0,0,0],[0,0.14,0,0,0],[0,0.19,0,0,0],[0,0.24,0,0,0],[0,0.29,0,0,0],[0,0.33,0,0,0],[0,0.38,0,0,0],[0,0.43,0,0,0],[0,0.48,0,0,0],[0,0.52,0,0,0],[0,0.57,0,0,0],[0,0.62,0,0,0],[0,0.67,0,0,0],[0,0.71,0,0,0],[0,0.76,0,0,0],[0,0.81,0,0,0],[0,0.86,0,0,0],[0,0.9,0,0,0],[0,0.95,0,0,0],[0.06,0,0,0,0],[0.06,1,0,0,0],[0.11,0,0,0,0],[0.11,1,0,0,0],[0.17,0,0,0,0],[0.17,1,0,0,0],[0.22,0,0,0,0],[0.22,1,0,0,0],[0.28,0,0,0,0],[0.28,1,0,0,0],[0.33,0,0,0,0],[0.33,1,0,0,0],[0.39,0,0,0,0],[0.39,1,0,0,0],[0.44,0,0,0,0],[0.44,1,0,0,0],[0.5,0,0,0,0],[0.5,1,0,0,0],[0.56,0,0,0,0],[0.56,1,0,0,0],[0.61,0,0,0,0],[0.61,1,0,0,0],[0.67,0,0,0,0],[0.67,1,0,0,0],[0.72,0,0,0,0],[0.72,1,0,0,0],[0.78,0,0,0,0],[0.78,1,0,0,0],[0.83,0,0,0,0],[0.83,1,0,0,0],[0.89,0,0,0,0],[0.89,1,0,0,0],[0.94,0,0,0,0],[0.94,1,0,0,0]];outlineConnect=0;shadow=0;sketch=0;fontFamily=Comic Sans MS;fontSize=10;fontColor=#000000;fillColor=#F8CECC;" vertex="1" parent="1">
          <mxGeometry x="1497" y="1705" width="18" height="270" as="geometry" />
        </mxCell>
        <mxCell id="bymFwab5TeU9cgXAcqGG-423" value="Client" style="text;strokeColor=none;fillColor=none;align=left;verticalAlign=middle;spacingLeft=4;spacingRight=4;overflow=hidden;points=[[0,0.5],[1,0.5]];portConstraint=eastwest;rotatable=0;shadow=0;sketch=0;fontFamily=Comic Sans MS;fontSize=16;fontColor=#000000;" vertex="1" parent="1">
          <mxGeometry x="1038.5" y="1665" width="80" height="30" as="geometry" />
        </mxCell>
        <mxCell id="bymFwab5TeU9cgXAcqGG-424" value="Server" style="text;strokeColor=none;fillColor=none;align=left;verticalAlign=middle;spacingLeft=4;spacingRight=4;overflow=hidden;points=[[0,0.5],[1,0.5]];portConstraint=eastwest;rotatable=0;shadow=0;sketch=0;fontFamily=Comic Sans MS;fontSize=16;fontColor=#000000;" vertex="1" parent="1">
          <mxGeometry x="1461.5" y="1665" width="80" height="30" as="geometry" />
        </mxCell>
        <mxCell id="bymFwab5TeU9cgXAcqGG-426" value="" style="rounded=0;whiteSpace=wrap;html=1;shadow=0;sketch=0;fontFamily=Comic Sans MS;fontSize=16;" vertex="1" parent="1">
          <mxGeometry x="992.5" y="1260" width="580" height="380" as="geometry" />
        </mxCell>
        <mxCell id="bymFwab5TeU9cgXAcqGG-427" value="" style="rounded=0;whiteSpace=wrap;html=1;shadow=0;sketch=0;fontFamily=Comic Sans MS;fontSize=16;" vertex="1" parent="1">
          <mxGeometry x="992.5" y="1260" width="580" height="50" as="geometry" />
        </mxCell>
        <mxCell id="bymFwab5TeU9cgXAcqGG-428" value="序列号（seq）32位" style="rounded=0;whiteSpace=wrap;html=1;shadow=0;sketch=0;fontFamily=Comic Sans MS;fontSize=16;fillColor=#ffe6cc;strokeColor=#d79b00;" vertex="1" parent="1">
          <mxGeometry x="992.5" y="1310" width="580" height="50" as="geometry" />
        </mxCell>
        <mxCell id="bymFwab5TeU9cgXAcqGG-429" value="确认号（ack）32位" style="rounded=0;whiteSpace=wrap;html=1;shadow=0;sketch=0;fontFamily=Comic Sans MS;fontSize=16;fillColor=#fff2cc;strokeColor=#d6b656;" vertex="1" parent="1">
          <mxGeometry x="992.5" y="1360" width="580" height="50" as="geometry" />
        </mxCell>
        <mxCell id="bymFwab5TeU9cgXAcqGG-430" value="" style="rounded=0;whiteSpace=wrap;html=1;shadow=0;sketch=0;fontFamily=Comic Sans MS;fontSize=16;" vertex="1" parent="1">
          <mxGeometry x="992.5" y="1410" width="580" height="50" as="geometry" />
        </mxCell>
        <mxCell id="bymFwab5TeU9cgXAcqGG-431" value="" style="rounded=0;whiteSpace=wrap;html=1;shadow=0;sketch=0;fontFamily=Comic Sans MS;fontSize=16;" vertex="1" parent="1">
          <mxGeometry x="992.5" y="1460" width="580" height="50" as="geometry" />
        </mxCell>
        <mxCell id="bymFwab5TeU9cgXAcqGG-432" value="选项" style="rounded=0;whiteSpace=wrap;html=1;shadow=0;sketch=0;fontFamily=Comic Sans MS;fontSize=16;fillColor=#e1d5e7;strokeColor=#9673a6;" vertex="1" parent="1">
          <mxGeometry x="992.5" y="1510" width="580" height="50" as="geometry" />
        </mxCell>
        <mxCell id="bymFwab5TeU9cgXAcqGG-433" value="数据" style="rounded=0;whiteSpace=wrap;html=1;shadow=0;sketch=0;fontFamily=Comic Sans MS;fontSize=16;" vertex="1" parent="1">
          <mxGeometry x="992.5" y="1560" width="580" height="90" as="geometry" />
        </mxCell>
        <mxCell id="bymFwab5TeU9cgXAcqGG-434" value="源端口号（16位）" style="rounded=0;whiteSpace=wrap;html=1;shadow=0;sketch=0;fontFamily=Comic Sans MS;fontSize=16;fontColor=#000000;fillColor=#F8CECC;" vertex="1" parent="1">
          <mxGeometry x="992.5" y="1260" width="290" height="50" as="geometry" />
        </mxCell>
        <mxCell id="bymFwab5TeU9cgXAcqGG-435" value="目标端口号（16位）" style="rounded=0;whiteSpace=wrap;html=1;shadow=0;sketch=0;fontFamily=Comic Sans MS;fontSize=16;fontColor=#000000;fillColor=#F8CECC;" vertex="1" parent="1">
          <mxGeometry x="1282.5" y="1260" width="290" height="50" as="geometry" />
        </mxCell>
        <mxCell id="bymFwab5TeU9cgXAcqGG-436" value="" style="rounded=0;whiteSpace=wrap;html=1;shadow=0;sketch=0;fontFamily=Comic Sans MS;fontSize=16;fontColor=#000000;fillColor=#F8CECC;" vertex="1" parent="1">
          <mxGeometry x="992.5" y="1410" width="290" height="50" as="geometry" />
        </mxCell>
        <mxCell id="bymFwab5TeU9cgXAcqGG-437" value="窗口大小&lt;span style=&quot;color: rgb(0, 0, 0);&quot;&gt;(16位)&lt;/span&gt;" style="rounded=0;whiteSpace=wrap;html=1;shadow=0;sketch=0;fontFamily=Comic Sans MS;fontSize=16;fontColor=#333333;fillColor=#f5f5f5;strokeColor=#666666;" vertex="1" parent="1">
          <mxGeometry x="1282.5" y="1410" width="290" height="50" as="geometry" />
        </mxCell>
        <mxCell id="bymFwab5TeU9cgXAcqGG-438" value="&lt;font style=&quot;font-size: 10px;&quot;&gt;首部长度（4位）&lt;/font&gt;" style="rounded=0;whiteSpace=wrap;html=1;shadow=0;sketch=0;fontFamily=Comic Sans MS;fontSize=16;fillColor=#fad7ac;strokeColor=#b46504;" vertex="1" parent="1">
          <mxGeometry x="992.5" y="1410" width="80" height="50" as="geometry" />
        </mxCell>
        <mxCell id="bymFwab5TeU9cgXAcqGG-439" value="&lt;font style=&quot;font-size: 14px;&quot;&gt;保留（6位）&lt;/font&gt;" style="rounded=0;whiteSpace=wrap;html=1;shadow=0;sketch=0;fontFamily=Comic Sans MS;fontSize=16;fillColor=#b1ddf0;strokeColor=#10739e;" vertex="1" parent="1">
          <mxGeometry x="1072.5" y="1410" width="90" height="50" as="geometry" />
        </mxCell>
        <mxCell id="bymFwab5TeU9cgXAcqGG-440" value="A&lt;br&gt;C&lt;br&gt;K" style="rounded=0;whiteSpace=wrap;html=1;shadow=0;sketch=0;fontFamily=Comic Sans MS;fontSize=16;fontColor=#000000;fillColor=#F8CECC;" vertex="1" parent="1">
          <mxGeometry x="1181.5" y="1410" width="20" height="50" as="geometry" />
        </mxCell>
        <mxCell id="bymFwab5TeU9cgXAcqGG-441" value="U&lt;br&gt;R&lt;br&gt;G" style="rounded=0;whiteSpace=wrap;html=1;shadow=0;sketch=0;fontFamily=Comic Sans MS;fontSize=16;fontColor=#000000;fillColor=#F8CECC;" vertex="1" parent="1">
          <mxGeometry x="1202.5" y="1410" width="20" height="50" as="geometry" />
        </mxCell>
        <mxCell id="bymFwab5TeU9cgXAcqGG-442" value="R&lt;br&gt;S&lt;br&gt;T" style="rounded=0;whiteSpace=wrap;html=1;shadow=0;sketch=0;fontFamily=Comic Sans MS;fontSize=16;fontColor=#000000;fillColor=#F8CECC;" vertex="1" parent="1">
          <mxGeometry x="1222.5" y="1410" width="20" height="50" as="geometry" />
        </mxCell>
        <mxCell id="bymFwab5TeU9cgXAcqGG-443" value="P&lt;br&gt;S&lt;br&gt;H" style="rounded=0;whiteSpace=wrap;html=1;shadow=0;sketch=0;fontFamily=Comic Sans MS;fontSize=16;fontColor=#000000;fillColor=#F8CECC;" vertex="1" parent="1">
          <mxGeometry x="1241.5" y="1410" width="20" height="50" as="geometry" />
        </mxCell>
        <mxCell id="bymFwab5TeU9cgXAcqGG-444" value="F&lt;br&gt;I&lt;br&gt;N" style="rounded=0;whiteSpace=wrap;html=1;shadow=0;sketch=0;fontFamily=Comic Sans MS;fontSize=16;fontColor=#000000;fillColor=#F8CECC;" vertex="1" parent="1">
          <mxGeometry x="1261.5" y="1410" width="20" height="50" as="geometry" />
        </mxCell>
        <mxCell id="bymFwab5TeU9cgXAcqGG-445" value="S&lt;br&gt;Y&lt;br&gt;N" style="rounded=0;whiteSpace=wrap;html=1;shadow=0;sketch=0;fontFamily=Comic Sans MS;fontSize=16;fontColor=#000000;fillColor=#F8CECC;" vertex="1" parent="1">
          <mxGeometry x="1161.5" y="1410" width="20" height="50" as="geometry" />
        </mxCell>
        <mxCell id="bymFwab5TeU9cgXAcqGG-446" value="校验和(16位)" style="rounded=0;whiteSpace=wrap;html=1;shadow=0;sketch=0;fontFamily=Comic Sans MS;fontSize=16;fillColor=#d5e8d4;strokeColor=#82b366;" vertex="1" parent="1">
          <mxGeometry x="991.5" y="1460" width="290" height="50" as="geometry" />
        </mxCell>
        <mxCell id="bymFwab5TeU9cgXAcqGG-447" value="紧急指针(16位)" style="rounded=0;whiteSpace=wrap;html=1;shadow=0;sketch=0;fontFamily=Comic Sans MS;fontSize=16;fillColor=#dae8fc;strokeColor=#6c8ebf;" vertex="1" parent="1">
          <mxGeometry x="1282.5" y="1460" width="290" height="50" as="geometry" />
        </mxCell>
        <mxCell id="bymFwab5TeU9cgXAcqGG-453" value="2msl" style="rounded=0;whiteSpace=wrap;html=1;shadow=0;sketch=0;fontFamily=Comic Sans MS;fontSize=14;fontColor=#000000;fillColor=#F8CECC;" vertex="1" parent="1">
          <mxGeometry x="1040.5" y="1920" width="34" height="45" as="geometry" />
        </mxCell>
        <mxCell id="bymFwab5TeU9cgXAcqGG-455" value="close" style="ellipse;whiteSpace=wrap;html=1;aspect=fixed;shadow=0;sketch=0;fontFamily=Comic Sans MS;fontSize=14;fontColor=#000000;fillColor=#F8CECC;" vertex="1" parent="1">
          <mxGeometry x="1485" y="1975" width="45" height="45" as="geometry" />
        </mxCell>
        <mxCell id="bymFwab5TeU9cgXAcqGG-456" value="close" style="ellipse;whiteSpace=wrap;html=1;aspect=fixed;shadow=0;sketch=0;fontFamily=Comic Sans MS;fontSize=14;fontColor=#000000;fillColor=#F8CECC;" vertex="1" parent="1">
          <mxGeometry x="1035" y="1975" width="45" height="45" as="geometry" />
        </mxCell>
        <mxCell id="bymFwab5TeU9cgXAcqGG-457" value="Time Wait" style="text;strokeColor=none;fillColor=none;align=left;verticalAlign=middle;spacingLeft=4;spacingRight=4;overflow=hidden;points=[[0,0.5],[1,0.5]];portConstraint=eastwest;rotatable=0;shadow=0;sketch=0;fontFamily=Comic Sans MS;fontSize=14;fontColor=#000000;" vertex="1" parent="1">
          <mxGeometry x="958.5" y="1927.5" width="80" height="30" as="geometry" />
        </mxCell>
        <mxCell id="bymFwab5TeU9cgXAcqGG-458" value="" style="rounded=1;whiteSpace=wrap;html=1;shadow=0;sketch=1;fontFamily=Comic Sans MS;fontColor=#000000;" vertex="1" parent="1">
          <mxGeometry x="174" y="2110" width="1236" height="860" as="geometry" />
        </mxCell>
        <mxCell id="bymFwab5TeU9cgXAcqGG-459" value="" style="line;strokeWidth=4;direction=south;html=1;perimeter=backbonePerimeter;points=[[0,0,0,0,0],[0,0.1,0,0,0],[0,0.2,0,0,0],[0,0.3,0,0,0],[0,0.4,0,0,0],[0,0.5,0,0,0],[0,0.6,0,0,0],[0,0.7,0,0,0],[0,0.8,0,0,0],[0,0.9,0,0,0],[0,1,0,0,0],[0.1,1,0,0,0],[0.2,1,0,0,0],[0.3,1,0,0,0],[0.4,1,0,0,0],[0.5,1,0,0,0],[0.6,1,0,0,0],[0.7,1,0,0,0],[0.8,1,0,0,0],[0.9,1,0,0,0],[1,0.03,0,0,0],[1,0.06,0,0,0],[1,0.1,0,0,0],[1,0.13,0,0,0],[1,0.16,0,0,0],[1,0.19,0,0,0],[1,0.23,0,0,0],[1,0.26,0,0,0],[1,0.29,0,0,0],[1,0.32,0,0,0],[1,0.35,0,0,0],[1,0.39,0,0,0],[1,0.42,0,0,0],[1,0.45,0,0,0],[1,0.48,0,0,0],[1,0.52,0,0,0],[1,0.55,0,0,0],[1,0.58,0,0,0],[1,0.61,0,0,0],[1,0.65,0,0,0],[1,0.68,0,0,0],[1,0.71,0,0,0],[1,0.74,0,0,0],[1,0.77,0,0,0],[1,0.81,0,0,0],[1,0.84,0,0,0],[1,0.87,0,0,0],[1,0.9,0,0,0],[1,0.94,0,0,0],[1,0.97,0,0,0],[1,1,0,0,0]];outlineConnect=0;shadow=0;sketch=0;fontFamily=Comic Sans MS;fontSize=14;fontColor=#000000;fillColor=#F8CECC;" vertex="1" parent="1">
          <mxGeometry x="328" y="2200" width="10" height="730" as="geometry" />
        </mxCell>
        <mxCell id="bymFwab5TeU9cgXAcqGG-460" value="" style="line;strokeWidth=4;direction=south;html=1;perimeter=backbonePerimeter;points=[];outlineConnect=0;shadow=0;sketch=0;fontFamily=Comic Sans MS;fontSize=14;fontColor=#000000;fillColor=#F8CECC;" vertex="1" parent="1">
          <mxGeometry x="940" y="2200" width="10" height="730" as="geometry" />
        </mxCell>
      </root>
    </mxGraphModel>
  </diagram>
</mxfile>
